M48
; DRILL file {KiCad 9.0.2} date 2025-07-16T17:06:47+0530
; FORMAT={-:-/ absolute / metric / decimal}
; #@! TF.CreationDate,2025-07-16T17:06:47+05:30
; #@! TF.GenerationSoftware,Kicad,Pcbnew,9.0.2
; #@! TF.FileFunction,Plated,1,4,PTH
FMAT,2
METRIC
; #@! TA.AperFunction,Plated,PTH,ComponentDrill
T1C0.200
; #@! TA.AperFunction,Plated,PTH,ViaDrill
T2C0.300
; #@! TA.AperFunction,Plated,PTH,ViaDrill
T3C0.500
; #@! TA.AperFunction,Plated,PTH,ViaDrill
T4C0.700
; #@! TA.AperFunction,Plated,PTH,ComponentDrill
T5C0.800
; #@! TA.AperFunction,Plated,PTH,ComponentDrill
T6C1.000
%
G90
G05
T1
X143.945Y-59.542
X143.945Y-61.067
X144.707Y-58.78
X144.707Y-60.305
X144.707Y-61.83
X145.47Y-59.542
X145.47Y-61.067
X146.232Y-58.78
X146.232Y-60.305
X146.232Y-61.83
X146.995Y-59.542
X146.995Y-61.067
X174.45Y-78.35
X174.45Y-79.75
X175.65Y-78.35
X175.65Y-79.75
X176.85Y-78.35
X176.85Y-79.75
T2
X119.55Y-82.0
X119.9Y-73.5
X125.7Y-74.3
X126.5Y-79.05
X129.0Y-70.7
X130.8Y-70.75
X131.35Y-66.75
X133.1Y-77.522
X133.6Y-72.7
X134.25Y-79.3
X134.55Y-61.4
X134.9Y-76.85
X135.1Y-75.35
X135.45Y-76.25
X135.55Y-74.6
X136.65Y-81.15
X136.75Y-85.65
X137.1Y-109.2
X139.3Y-74.7
X139.5Y-81.45
X139.65Y-85.65
X140.4Y-75.05
X140.7Y-80.0
X143.75Y-73.2
X143.75Y-76.9
X145.35Y-73.35
X145.5Y-86.8
X149.75Y-82.95
X149.8Y-95.65
X151.45Y-73.35
X152.05Y-106.4
X153.05Y-89.45
X155.95Y-78.4
X156.3Y-68.4
X156.35Y-55.55
X157.45Y-54.85
X158.3Y-68.55
X159.6Y-71.85
X159.7Y-67.85
X161.0Y-67.0
X161.5Y-87.4
X161.7Y-60.3
X162.75Y-57.95
X163.15Y-77.5
X165.1Y-55.45
X165.15Y-88.85
X166.1Y-62.5
X166.1Y-63.9
X166.75Y-60.1
X168.3Y-76.65
X168.4Y-92.6
X169.6Y-66.35
X170.35Y-86.9
X171.05Y-73.45
X171.55Y-89.55
X172.3Y-74.95
X173.75Y-87.0
X174.3Y-88.45
X175.1Y-84.55
X176.25Y-74.9
X176.3Y-84.3
T3
X130.049Y-69.95
X135.0Y-55.355
T4
X171.1Y-83.7
T5
X154.993Y-106.297
X157.532Y-106.297
X160.072Y-106.297
X162.612Y-106.297
T6
X133.635Y-95.255
X133.635Y-101.975
X136.995Y-93.865
X136.995Y-103.365
X140.355Y-95.255
X140.355Y-101.975
X153.9Y-81.132
X153.9Y-86.132
X162.9Y-71.55
X167.9Y-71.55
M30
