%TF.GenerationSoftware,KiCad,Pcbnew,9.0.2*%
%TF.CreationDate,2025-07-16T17:06:44+05:30*%
%TF.ProjectId,CanSat,43616e53-6174-42e6-9b69-6361645f7063,rev?*%
%TF.SameCoordinates,Original*%
%TF.FileFunction,Copper,L2,Inr*%
%TF.FilePolarity,Positive*%
%FSLAX46Y46*%
G04 Gerber Fmt 4.6, Leading zero omitted, Abs format (unit mm)*
G04 Created by KiCad (PCBNEW 9.0.2) date 2025-07-16 17:06:44*
%MOMM*%
%LPD*%
G01*
G04 APERTURE LIST*
G04 Aperture macros list*
%AMRoundRect*
0 Rectangle with rounded corners*
0 $1 Rounding radius*
0 $2 $3 $4 $5 $6 $7 $8 $9 X,Y pos of 4 corners*
0 Add a 4 corners polygon primitive as box body*
4,1,4,$2,$3,$4,$5,$6,$7,$8,$9,$2,$3,0*
0 Add four circle primitives for the rounded corners*
1,1,$1+$1,$2,$3*
1,1,$1+$1,$4,$5*
1,1,$1+$1,$6,$7*
1,1,$1+$1,$8,$9*
0 Add four rect primitives between the rounded corners*
20,1,$1+$1,$2,$3,$4,$5,0*
20,1,$1+$1,$4,$5,$6,$7,0*
20,1,$1+$1,$6,$7,$8,$9,0*
20,1,$1+$1,$8,$9,$2,$3,0*%
G04 Aperture macros list end*
%TA.AperFunction,HeatsinkPad*%
%ADD10C,0.600000*%
%TD*%
%TA.AperFunction,ComponentPad*%
%ADD11RoundRect,0.250000X-0.750000X0.750000X-0.750000X-0.750000X0.750000X-0.750000X0.750000X0.750000X0*%
%TD*%
%TA.AperFunction,ComponentPad*%
%ADD12C,2.000000*%
%TD*%
%TA.AperFunction,ComponentPad*%
%ADD13R,2.000000X2.000000*%
%TD*%
%TA.AperFunction,ComponentPad*%
%ADD14R,1.500000X1.500000*%
%TD*%
%TA.AperFunction,ComponentPad*%
%ADD15C,1.500000*%
%TD*%
%TA.AperFunction,ComponentPad*%
%ADD16RoundRect,0.250000X0.750000X0.750000X-0.750000X0.750000X-0.750000X-0.750000X0.750000X-0.750000X0*%
%TD*%
%TA.AperFunction,HeatsinkPad*%
%ADD17C,0.500000*%
%TD*%
%TA.AperFunction,ViaPad*%
%ADD18C,0.600000*%
%TD*%
%TA.AperFunction,ViaPad*%
%ADD19C,1.000000*%
%TD*%
%TA.AperFunction,ViaPad*%
%ADD20C,0.700000*%
%TD*%
%TA.AperFunction,Conductor*%
%ADD21C,0.300000*%
%TD*%
G04 APERTURE END LIST*
D10*
%TO.N,Net-(U8-GND-Pad15)*%
%TO.C,U9*%
X143945000Y-59542500D03*
X143945000Y-61067500D03*
X144707500Y-58780000D03*
X144707500Y-60305000D03*
X144707500Y-61830000D03*
X145470000Y-59542500D03*
X145470000Y-61067500D03*
X146232500Y-58780000D03*
X146232500Y-60305000D03*
X146232500Y-61830000D03*
X146995000Y-59542500D03*
X146995000Y-61067500D03*
%TD*%
D11*
%TO.N,+3.3V*%
%TO.C,C3*%
X153900000Y-81132323D03*
D12*
%TO.N,GND*%
X153900000Y-86132323D03*
%TD*%
D13*
%TO.N,MQ6_OUT*%
%TO.C,U2*%
X133635000Y-95255000D03*
D12*
%TO.N,+5V*%
X136995000Y-93865000D03*
%TO.N,MQ6_OUT*%
X140355000Y-95255000D03*
%TO.N,Net-(U2-A1)*%
X140355000Y-101975000D03*
%TO.N,GND*%
X136995000Y-103365000D03*
%TO.N,Net-(U2-A1)*%
X133635000Y-101975000D03*
%TD*%
D14*
%TO.N,+5V*%
%TO.C,U5*%
X162612500Y-106297500D03*
D15*
%TO.N,DHT_OUT*%
X160072500Y-106297500D03*
%TO.N,unconnected-(U5-NC-Pad3)*%
X157532500Y-106297500D03*
%TO.N,GND*%
X154992500Y-106297500D03*
%TD*%
D16*
%TO.N,BAT+*%
%TO.C,C2*%
X167900000Y-71550000D03*
D12*
%TO.N,GND*%
X162900000Y-71550000D03*
%TD*%
D17*
%TO.N,GND*%
%TO.C,U4*%
X176850000Y-78350000D03*
X175650000Y-78350000D03*
X174450000Y-78350000D03*
X176850000Y-79750000D03*
X175650000Y-79750000D03*
X174450000Y-79750000D03*
%TD*%
D18*
%TO.N,*%
X165150000Y-88850000D03*
X155950000Y-78400000D03*
%TO.N,GND*%
X153050000Y-89450000D03*
X137100000Y-109200000D03*
X161700000Y-60300000D03*
X139500000Y-81450000D03*
X161500000Y-87400000D03*
X135100000Y-75350000D03*
X166750000Y-60100000D03*
X119550000Y-82000000D03*
X171550000Y-89550000D03*
X152050000Y-106400000D03*
X166100000Y-62500000D03*
X145500000Y-86800000D03*
X166100000Y-63900000D03*
X171050000Y-73450000D03*
X136650000Y-81150000D03*
X162750000Y-57950000D03*
X176250000Y-74900000D03*
X119900000Y-73500000D03*
X159600000Y-71850000D03*
X161000000Y-67000000D03*
X140400000Y-75050000D03*
D19*
%TO.N,BAT+*%
X171100000Y-83700000D03*
D18*
%TO.N,+3.3V*%
X139650000Y-85650000D03*
X169600000Y-66350000D03*
X159700000Y-67850000D03*
X140700000Y-80000000D03*
X135550000Y-74600000D03*
D20*
X130048576Y-69950000D03*
D18*
X125700000Y-74300000D03*
X157450000Y-54850000D03*
X165100000Y-55450000D03*
X136750000Y-85650000D03*
D20*
X135000000Y-55355000D03*
D18*
X135450000Y-76250000D03*
%TO.N,Net-(BT1--)*%
X163150000Y-77500000D03*
%TO.N,Net-(D1-K)*%
X173750000Y-87000000D03*
X170350000Y-86900000D03*
%TO.N,Net-(D2-K)*%
X168400000Y-92600000D03*
%TO.N,Net-(U4-~{CHRG})*%
X174300000Y-88450000D03*
X175100000Y-84550000D03*
%TO.N,Net-(U4-~{STDBY})*%
X176300000Y-84300000D03*
%TO.N,MQ6_OUT*%
X149750000Y-82950000D03*
X151450000Y-73350000D03*
X149800000Y-95650000D03*
%TO.N,Net-(U4-PROG)*%
X172300000Y-74950000D03*
%TO.N,Net-(U4-TEMP)*%
X168300000Y-76650000D03*
%TO.N,LM35*%
X134250000Y-79300000D03*
X134550000Y-61400000D03*
%TO.N,SDI*%
X156350000Y-55550000D03*
X139300000Y-74700000D03*
%TO.N,SCK*%
X143750000Y-73200000D03*
X143750000Y-76900000D03*
%TO.N,SDO*%
X134900000Y-76850000D03*
X145350000Y-73350000D03*
%TO.N,Net-(U8-GND-Pad15)*%
X130800000Y-70750000D03*
X129000000Y-70700000D03*
X133600000Y-72700000D03*
X133100000Y-77522120D03*
%TO.N,Net-(U8-~{RESET})*%
X156300000Y-68400000D03*
X158300000Y-68550000D03*
%TO.N,Net-(U8-DIO0)*%
X131350000Y-66750000D03*
X126500000Y-79050000D03*
%TD*%
D21*
%TO.N,GND*%
X153050000Y-89450000D02*
X153900000Y-88600000D01*
X153900000Y-88600000D02*
X153900000Y-86132323D01*
%TD*%
%TA.AperFunction,Conductor*%
%TO.N,GND*%
G36*
X160493720Y-52333789D02*
G01*
X160538178Y-52342429D01*
X160947015Y-52503653D01*
X160952462Y-52505801D01*
X160956374Y-52507421D01*
X161947234Y-52937812D01*
X161951088Y-52939565D01*
X162307278Y-53108961D01*
X162926671Y-53403532D01*
X162930421Y-53405394D01*
X163889630Y-53902416D01*
X163893330Y-53904414D01*
X164206078Y-54080264D01*
X164834996Y-54433887D01*
X164838648Y-54436024D01*
X164838650Y-54436025D01*
X164880023Y-54461184D01*
X164927075Y-54512833D01*
X164938735Y-54581723D01*
X164911298Y-54645981D01*
X164863049Y-54681693D01*
X164720823Y-54740604D01*
X164720814Y-54740609D01*
X164589711Y-54828210D01*
X164589707Y-54828213D01*
X164478213Y-54939707D01*
X164478210Y-54939711D01*
X164390609Y-55070814D01*
X164390602Y-55070827D01*
X164330264Y-55216498D01*
X164330261Y-55216510D01*
X164299500Y-55371153D01*
X164299500Y-55528846D01*
X164330261Y-55683489D01*
X164330264Y-55683501D01*
X164390602Y-55829172D01*
X164390609Y-55829185D01*
X164478210Y-55960288D01*
X164478213Y-55960292D01*
X164589707Y-56071786D01*
X164589711Y-56071789D01*
X164720814Y-56159390D01*
X164720827Y-56159397D01*
X164866498Y-56219735D01*
X164866503Y-56219737D01*
X165021153Y-56250499D01*
X165021156Y-56250500D01*
X165021158Y-56250500D01*
X165178844Y-56250500D01*
X165178845Y-56250499D01*
X165333497Y-56219737D01*
X165479179Y-56159394D01*
X165610289Y-56071789D01*
X165721789Y-55960289D01*
X165809394Y-55829179D01*
X165869737Y-55683497D01*
X165900500Y-55528842D01*
X165900500Y-55371158D01*
X165900500Y-55371155D01*
X165893499Y-55335960D01*
X165899726Y-55266368D01*
X165942589Y-55211191D01*
X166008478Y-55187946D01*
X166076475Y-55204014D01*
X166083116Y-55208076D01*
X166434833Y-55438767D01*
X166668562Y-55592070D01*
X166672055Y-55594448D01*
X167554612Y-56217425D01*
X167557993Y-56219899D01*
X167730217Y-56350500D01*
X168418795Y-56872665D01*
X168422125Y-56875281D01*
X169260120Y-57557041D01*
X169263358Y-57559769D01*
X170077549Y-58269707D01*
X170080693Y-58272543D01*
X170870243Y-59009931D01*
X170873287Y-59012874D01*
X171637125Y-59776712D01*
X171640068Y-59779756D01*
X172377456Y-60569306D01*
X172380292Y-60572450D01*
X173090230Y-61386641D01*
X173092958Y-61389879D01*
X173774718Y-62227874D01*
X173777334Y-62231204D01*
X174430087Y-63091988D01*
X174432581Y-63095397D01*
X174802796Y-63619872D01*
X175055546Y-63977937D01*
X175057929Y-63981437D01*
X175650432Y-64884781D01*
X175652693Y-64888361D01*
X176213974Y-65811349D01*
X176216112Y-65815003D01*
X176745578Y-66756657D01*
X176747590Y-66760383D01*
X177244594Y-67719557D01*
X177246477Y-67723349D01*
X177710434Y-68698911D01*
X177712187Y-68702765D01*
X178142567Y-69693600D01*
X178144187Y-69697512D01*
X178540509Y-70702513D01*
X178541991Y-70706469D01*
X178583153Y-70822287D01*
X178903746Y-71724351D01*
X178905096Y-71728364D01*
X179231899Y-72758036D01*
X179233111Y-72762093D01*
X179421231Y-73433497D01*
X179521036Y-73789707D01*
X179524575Y-73802336D01*
X179525647Y-73806432D01*
X179781417Y-74855991D01*
X179782349Y-74860122D01*
X180002133Y-75917785D01*
X180002924Y-75921944D01*
X180186479Y-76986536D01*
X180187127Y-76990720D01*
X180334225Y-78060935D01*
X180334730Y-78065139D01*
X180445204Y-79139763D01*
X180445565Y-79143982D01*
X180519286Y-80221737D01*
X180519503Y-80225965D01*
X180556386Y-81305634D01*
X180556458Y-81309868D01*
X180556458Y-82390131D01*
X180556386Y-82394365D01*
X180519503Y-83474034D01*
X180519286Y-83478262D01*
X180445565Y-84556017D01*
X180445204Y-84560236D01*
X180334730Y-85634860D01*
X180334225Y-85639064D01*
X180187127Y-86709279D01*
X180186479Y-86713463D01*
X180002924Y-87778055D01*
X180002133Y-87782214D01*
X179782349Y-88839877D01*
X179781417Y-88844008D01*
X179525647Y-89893567D01*
X179524575Y-89897663D01*
X179233111Y-90937906D01*
X179231899Y-90941963D01*
X178905096Y-91971635D01*
X178903746Y-91975648D01*
X178541995Y-92993521D01*
X178540509Y-92997486D01*
X178144187Y-94002487D01*
X178142567Y-94006399D01*
X177712187Y-94997234D01*
X177710434Y-95001088D01*
X177246477Y-95976650D01*
X177244594Y-95980442D01*
X176747590Y-96939616D01*
X176745578Y-96943342D01*
X176216112Y-97884996D01*
X176213974Y-97888650D01*
X175652693Y-98811638D01*
X175650432Y-98815218D01*
X175057929Y-99718562D01*
X175055546Y-99722062D01*
X174432587Y-100604594D01*
X174430087Y-100608011D01*
X173777334Y-101468795D01*
X173774718Y-101472125D01*
X173092958Y-102310120D01*
X173090230Y-102313358D01*
X172380292Y-103127549D01*
X172377456Y-103130693D01*
X171640068Y-103920243D01*
X171637125Y-103923287D01*
X170873287Y-104687125D01*
X170870243Y-104690068D01*
X170080693Y-105427456D01*
X170077549Y-105430292D01*
X169263358Y-106140230D01*
X169260120Y-106142958D01*
X168422125Y-106824718D01*
X168418795Y-106827334D01*
X167558011Y-107480087D01*
X167554594Y-107482587D01*
X166672062Y-108105546D01*
X166668562Y-108107929D01*
X165765218Y-108700432D01*
X165761638Y-108702693D01*
X164838650Y-109263974D01*
X164834996Y-109266112D01*
X163893342Y-109795578D01*
X163889616Y-109797590D01*
X162930442Y-110294594D01*
X162926650Y-110296477D01*
X161951088Y-110760434D01*
X161947234Y-110762187D01*
X160956399Y-111192567D01*
X160952487Y-111194187D01*
X159947486Y-111590509D01*
X159943521Y-111591995D01*
X158925648Y-111953746D01*
X158921635Y-111955096D01*
X157891963Y-112281899D01*
X157887906Y-112283111D01*
X156847663Y-112574575D01*
X156843567Y-112575647D01*
X155794008Y-112831417D01*
X155789877Y-112832349D01*
X154732214Y-113052133D01*
X154728055Y-113052924D01*
X153663463Y-113236479D01*
X153659279Y-113237127D01*
X152589064Y-113384225D01*
X152584860Y-113384730D01*
X151510236Y-113495204D01*
X151506017Y-113495565D01*
X150428262Y-113569286D01*
X150424034Y-113569503D01*
X149344366Y-113606386D01*
X149340132Y-113606458D01*
X148259868Y-113606458D01*
X148255634Y-113606386D01*
X147175965Y-113569503D01*
X147171737Y-113569286D01*
X146093982Y-113495565D01*
X146089763Y-113495204D01*
X145015139Y-113384730D01*
X145010935Y-113384225D01*
X143940720Y-113237127D01*
X143936536Y-113236479D01*
X142871944Y-113052924D01*
X142867785Y-113052133D01*
X141810122Y-112832349D01*
X141805991Y-112831417D01*
X140756432Y-112575647D01*
X140752336Y-112574575D01*
X139712093Y-112283111D01*
X139708036Y-112281899D01*
X138678364Y-111955096D01*
X138674351Y-111953746D01*
X137969978Y-111703412D01*
X137656469Y-111591991D01*
X137652513Y-111590509D01*
X136647512Y-111194187D01*
X136643600Y-111192567D01*
X135652765Y-110762187D01*
X135648911Y-110760434D01*
X134673349Y-110296477D01*
X134669557Y-110294594D01*
X133710383Y-109797590D01*
X133706657Y-109795578D01*
X132765003Y-109266112D01*
X132761349Y-109263974D01*
X131838361Y-108702693D01*
X131834781Y-108700432D01*
X130931437Y-108107929D01*
X130927937Y-108105546D01*
X130569872Y-107852796D01*
X130045397Y-107482581D01*
X130041988Y-107480087D01*
X130010728Y-107456382D01*
X129613273Y-107154982D01*
X129181204Y-106827334D01*
X129177874Y-106824718D01*
X128521108Y-106290399D01*
X128408858Y-106199077D01*
X156282000Y-106199077D01*
X156282000Y-106395922D01*
X156312790Y-106590326D01*
X156373617Y-106777529D01*
X156444281Y-106916214D01*
X156462976Y-106952905D01*
X156578672Y-107112146D01*
X156717854Y-107251328D01*
X156877095Y-107367024D01*
X156951714Y-107405044D01*
X157052470Y-107456382D01*
X157052472Y-107456382D01*
X157052475Y-107456384D01*
X157125425Y-107480087D01*
X157239673Y-107517209D01*
X157434078Y-107548000D01*
X157434083Y-107548000D01*
X157630922Y-107548000D01*
X157825326Y-107517209D01*
X157905074Y-107491297D01*
X158012525Y-107456384D01*
X158187905Y-107367024D01*
X158347146Y-107251328D01*
X158486328Y-107112146D01*
X158602024Y-106952905D01*
X158666005Y-106827334D01*
X158692015Y-106776287D01*
X158739989Y-106725490D01*
X158807810Y-106708695D01*
X158873945Y-106731232D01*
X158912985Y-106776287D01*
X159002974Y-106952903D01*
X159007317Y-106958880D01*
X159118672Y-107112146D01*
X159257854Y-107251328D01*
X159417095Y-107367024D01*
X159491714Y-107405044D01*
X159592470Y-107456382D01*
X159592472Y-107456382D01*
X159592475Y-107456384D01*
X159665425Y-107480087D01*
X159779673Y-107517209D01*
X159974078Y-107548000D01*
X159974083Y-107548000D01*
X160170922Y-107548000D01*
X160365326Y-107517209D01*
X160445074Y-107491297D01*
X160552525Y-107456384D01*
X160727905Y-107367024D01*
X160887146Y-107251328D01*
X161026328Y-107112146D01*
X161137684Y-106958878D01*
X161193012Y-106916214D01*
X161262625Y-106910235D01*
X161324420Y-106942841D01*
X161358777Y-107003679D01*
X161362000Y-107031763D01*
X161362000Y-107095369D01*
X161362001Y-107095376D01*
X161368408Y-107154983D01*
X161418702Y-107289828D01*
X161418706Y-107289835D01*
X161504952Y-107405044D01*
X161504955Y-107405047D01*
X161620164Y-107491293D01*
X161620171Y-107491297D01*
X161755017Y-107541591D01*
X161755016Y-107541591D01*
X161761944Y-107542335D01*
X161814627Y-107548000D01*
X163410372Y-107547999D01*
X163469983Y-107541591D01*
X163604831Y-107491296D01*
X163720046Y-107405046D01*
X163806296Y-107289831D01*
X163856591Y-107154983D01*
X163863000Y-107095373D01*
X163862999Y-105499628D01*
X163856591Y-105440017D01*
X163846093Y-105411871D01*
X163806297Y-105305171D01*
X163806293Y-105305164D01*
X163720047Y-105189955D01*
X163720044Y-105189952D01*
X163604835Y-105103706D01*
X163604828Y-105103702D01*
X163469982Y-105053408D01*
X163469983Y-105053408D01*
X163410383Y-105047001D01*
X163410381Y-105047000D01*
X163410373Y-105047000D01*
X163410364Y-105047000D01*
X161814629Y-105047000D01*
X161814623Y-105047001D01*
X161755016Y-105053408D01*
X161620171Y-105103702D01*
X161620164Y-105103706D01*
X161504955Y-105189952D01*
X161504952Y-105189955D01*
X161418706Y-105305164D01*
X161418702Y-105305171D01*
X161368408Y-105440017D01*
X161363803Y-105482854D01*
X161362001Y-105499623D01*
X161362000Y-105499635D01*
X161362000Y-105563232D01*
X161342315Y-105630271D01*
X161289511Y-105676026D01*
X161220353Y-105685970D01*
X161156797Y-105656945D01*
X161137682Y-105636118D01*
X161038520Y-105499635D01*
X161026328Y-105482854D01*
X160887146Y-105343672D01*
X160727905Y-105227976D01*
X160552529Y-105138617D01*
X160365326Y-105077790D01*
X160170922Y-105047000D01*
X160170917Y-105047000D01*
X159974083Y-105047000D01*
X159974078Y-105047000D01*
X159779673Y-105077790D01*
X159592470Y-105138617D01*
X159417094Y-105227976D01*
X159326241Y-105293985D01*
X159257854Y-105343672D01*
X159257852Y-105343674D01*
X159257851Y-105343674D01*
X159118674Y-105482851D01*
X159118674Y-105482852D01*
X159118672Y-105482854D01*
X159106480Y-105499635D01*
X159002976Y-105642094D01*
X158912985Y-105818713D01*
X158865011Y-105869509D01*
X158797190Y-105886304D01*
X158731055Y-105863767D01*
X158692015Y-105818713D01*
X158624379Y-105685970D01*
X158602024Y-105642095D01*
X158486328Y-105482854D01*
X158347146Y-105343672D01*
X158187905Y-105227976D01*
X158012529Y-105138617D01*
X157825326Y-105077790D01*
X157630922Y-105047000D01*
X157630917Y-105047000D01*
X157434083Y-105047000D01*
X157434078Y-105047000D01*
X157239673Y-105077790D01*
X157052470Y-105138617D01*
X156877094Y-105227976D01*
X156786241Y-105293985D01*
X156717854Y-105343672D01*
X156717852Y-105343674D01*
X156717851Y-105343674D01*
X156578674Y-105482851D01*
X156578674Y-105482852D01*
X156578672Y-105482854D01*
X156566480Y-105499635D01*
X156462976Y-105642094D01*
X156373617Y-105817470D01*
X156312790Y-106004673D01*
X156282000Y-106199077D01*
X128408858Y-106199077D01*
X128339879Y-106142958D01*
X128336641Y-106140230D01*
X127522450Y-105430292D01*
X127519306Y-105427456D01*
X126729756Y-104690068D01*
X126726712Y-104687125D01*
X125962874Y-103923287D01*
X125959931Y-103920243D01*
X125222543Y-103130693D01*
X125219707Y-103127549D01*
X124509769Y-102313358D01*
X124507041Y-102310120D01*
X124198027Y-101930291D01*
X124138321Y-101856902D01*
X132134500Y-101856902D01*
X132134500Y-102093097D01*
X132171446Y-102326368D01*
X132244433Y-102550996D01*
X132351657Y-102761433D01*
X132490483Y-102952510D01*
X132657490Y-103119517D01*
X132848567Y-103258343D01*
X132947991Y-103309002D01*
X133059003Y-103365566D01*
X133059005Y-103365566D01*
X133059008Y-103365568D01*
X133179412Y-103404689D01*
X133283631Y-103438553D01*
X133516903Y-103475500D01*
X133516908Y-103475500D01*
X133753097Y-103475500D01*
X133986368Y-103438553D01*
X134210992Y-103365568D01*
X134421433Y-103258343D01*
X134612510Y-103119517D01*
X134779517Y-102952510D01*
X134918343Y-102761433D01*
X135025568Y-102550992D01*
X135098553Y-102326368D01*
X135101126Y-102310120D01*
X135135500Y-102093097D01*
X135135500Y-101856902D01*
X138854500Y-101856902D01*
X138854500Y-102093097D01*
X138891446Y-102326368D01*
X138964433Y-102550996D01*
X139071657Y-102761433D01*
X139210483Y-102952510D01*
X139377490Y-103119517D01*
X139568567Y-103258343D01*
X139667991Y-103309002D01*
X139779003Y-103365566D01*
X139779005Y-103365566D01*
X139779008Y-103365568D01*
X139899412Y-103404689D01*
X140003631Y-103438553D01*
X140236903Y-103475500D01*
X140236908Y-103475500D01*
X140473097Y-103475500D01*
X140706368Y-103438553D01*
X140930992Y-103365568D01*
X141141433Y-103258343D01*
X141332510Y-103119517D01*
X141499517Y-102952510D01*
X141638343Y-102761433D01*
X141745568Y-102550992D01*
X141818553Y-102326368D01*
X141821126Y-102310120D01*
X141855500Y-102093097D01*
X141855500Y-101856902D01*
X141818553Y-101623631D01*
X141745566Y-101399003D01*
X141638342Y-101188566D01*
X141499517Y-100997490D01*
X141332510Y-100830483D01*
X141141433Y-100691657D01*
X140930996Y-100584433D01*
X140706368Y-100511446D01*
X140473097Y-100474500D01*
X140473092Y-100474500D01*
X140236908Y-100474500D01*
X140236903Y-100474500D01*
X140003631Y-100511446D01*
X139779003Y-100584433D01*
X139568566Y-100691657D01*
X139459550Y-100770862D01*
X139377490Y-100830483D01*
X139377488Y-100830485D01*
X139377487Y-100830485D01*
X139210485Y-100997487D01*
X139210485Y-100997488D01*
X139210483Y-100997490D01*
X139150862Y-101079550D01*
X139071657Y-101188566D01*
X138964433Y-101399003D01*
X138891446Y-101623631D01*
X138854500Y-101856902D01*
X135135500Y-101856902D01*
X135098553Y-101623631D01*
X135025566Y-101399003D01*
X134918342Y-101188566D01*
X134779517Y-100997490D01*
X134612510Y-100830483D01*
X134421433Y-100691657D01*
X134210996Y-100584433D01*
X133986368Y-100511446D01*
X133753097Y-100474500D01*
X133753092Y-100474500D01*
X133516908Y-100474500D01*
X133516903Y-100474500D01*
X133283631Y-100511446D01*
X133059003Y-100584433D01*
X132848566Y-100691657D01*
X132739550Y-100770862D01*
X132657490Y-100830483D01*
X132657488Y-100830485D01*
X132657487Y-100830485D01*
X132490485Y-100997487D01*
X132490485Y-100997488D01*
X132490483Y-100997490D01*
X132430862Y-101079550D01*
X132351657Y-101188566D01*
X132244433Y-101399003D01*
X132171446Y-101623631D01*
X132134500Y-101856902D01*
X124138321Y-101856902D01*
X123825281Y-101472125D01*
X123822665Y-101468795D01*
X123465261Y-100997487D01*
X123169899Y-100607993D01*
X123167412Y-100604594D01*
X123153180Y-100584432D01*
X122544448Y-99722055D01*
X122542070Y-99718562D01*
X121949567Y-98815218D01*
X121947306Y-98811638D01*
X121386025Y-97888650D01*
X121383887Y-97884996D01*
X120854421Y-96943342D01*
X120852409Y-96939616D01*
X120757008Y-96755500D01*
X120355394Y-95980421D01*
X120353522Y-95976650D01*
X120309222Y-95883501D01*
X119904132Y-95031718D01*
X119889565Y-95001088D01*
X119887812Y-94997234D01*
X119564636Y-94253208D01*
X119544623Y-94207135D01*
X132134500Y-94207135D01*
X132134500Y-96302870D01*
X132134501Y-96302876D01*
X132140908Y-96362483D01*
X132191202Y-96497328D01*
X132191206Y-96497335D01*
X132277452Y-96612544D01*
X132277455Y-96612547D01*
X132392664Y-96698793D01*
X132392671Y-96698797D01*
X132527517Y-96749091D01*
X132527516Y-96749091D01*
X132534444Y-96749835D01*
X132587127Y-96755500D01*
X134682872Y-96755499D01*
X134742483Y-96749091D01*
X134877331Y-96698796D01*
X134992546Y-96612546D01*
X135078796Y-96497331D01*
X135129091Y-96362483D01*
X135135500Y-96302873D01*
X135135499Y-94207128D01*
X135129091Y-94147517D01*
X135115278Y-94110483D01*
X135078797Y-94012671D01*
X135078793Y-94012664D01*
X134992547Y-93897455D01*
X134917537Y-93841302D01*
X134908106Y-93834242D01*
X134877331Y-93811204D01*
X134877329Y-93811203D01*
X134877328Y-93811202D01*
X134742482Y-93760908D01*
X134742483Y-93760908D01*
X134682883Y-93754501D01*
X134682881Y-93754500D01*
X134682873Y-93754500D01*
X134682864Y-93754500D01*
X132587129Y-93754500D01*
X132587123Y-93754501D01*
X132527516Y-93760908D01*
X132392671Y-93811202D01*
X132392664Y-93811206D01*
X132277455Y-93897452D01*
X132277452Y-93897455D01*
X132191206Y-94012664D01*
X132191202Y-94012671D01*
X132140908Y-94147517D01*
X132134501Y-94207116D01*
X132134501Y-94207123D01*
X132134500Y-94207135D01*
X119544623Y-94207135D01*
X119544615Y-94207116D01*
X119457431Y-94006396D01*
X119455812Y-94002487D01*
X119355022Y-93746902D01*
X135494500Y-93746902D01*
X135494500Y-93983097D01*
X135531446Y-94216368D01*
X135604433Y-94440996D01*
X135711657Y-94651433D01*
X135850483Y-94842510D01*
X136017490Y-95009517D01*
X136208567Y-95148343D01*
X136307991Y-95199002D01*
X136419003Y-95255566D01*
X136419005Y-95255566D01*
X136419008Y-95255568D01*
X136539412Y-95294689D01*
X136643631Y-95328553D01*
X136876903Y-95365500D01*
X136876908Y-95365500D01*
X137113097Y-95365500D01*
X137346368Y-95328553D01*
X137570992Y-95255568D01*
X137781433Y-95148343D01*
X137797180Y-95136902D01*
X138854500Y-95136902D01*
X138854500Y-95373097D01*
X138891446Y-95606368D01*
X138964433Y-95830996D01*
X139065410Y-96029172D01*
X139071657Y-96041433D01*
X139210483Y-96232510D01*
X139377490Y-96399517D01*
X139568567Y-96538343D01*
X139667991Y-96589002D01*
X139779003Y-96645566D01*
X139779005Y-96645566D01*
X139779008Y-96645568D01*
X139899412Y-96684689D01*
X140003631Y-96718553D01*
X140236903Y-96755500D01*
X140236908Y-96755500D01*
X140473097Y-96755500D01*
X140706368Y-96718553D01*
X140930992Y-96645568D01*
X141141433Y-96538343D01*
X141332510Y-96399517D01*
X141499517Y-96232510D01*
X141638343Y-96041433D01*
X141745568Y-95830992D01*
X141818553Y-95606368D01*
X141824131Y-95571153D01*
X148999500Y-95571153D01*
X148999500Y-95728846D01*
X149030261Y-95883489D01*
X149030264Y-95883501D01*
X149090602Y-96029172D01*
X149090609Y-96029185D01*
X149178210Y-96160288D01*
X149178213Y-96160292D01*
X149289707Y-96271786D01*
X149289711Y-96271789D01*
X149420814Y-96359390D01*
X149420827Y-96359397D01*
X149517687Y-96399517D01*
X149566503Y-96419737D01*
X149721153Y-96450499D01*
X149721156Y-96450500D01*
X149721158Y-96450500D01*
X149878844Y-96450500D01*
X149878845Y-96450499D01*
X150033497Y-96419737D01*
X150146166Y-96373067D01*
X150179172Y-96359397D01*
X150179172Y-96359396D01*
X150179179Y-96359394D01*
X150310289Y-96271789D01*
X150421789Y-96160289D01*
X150509394Y-96029179D01*
X150569737Y-95883497D01*
X150600500Y-95728842D01*
X150600500Y-95571158D01*
X150600500Y-95571155D01*
X150600499Y-95571153D01*
X150569738Y-95416510D01*
X150569737Y-95416503D01*
X150548611Y-95365500D01*
X150509397Y-95270827D01*
X150509390Y-95270814D01*
X150421789Y-95139711D01*
X150421786Y-95139707D01*
X150310292Y-95028213D01*
X150310288Y-95028210D01*
X150179185Y-94940609D01*
X150179172Y-94940602D01*
X150033501Y-94880264D01*
X150033489Y-94880261D01*
X149878845Y-94849500D01*
X149878842Y-94849500D01*
X149721158Y-94849500D01*
X149721155Y-94849500D01*
X149566510Y-94880261D01*
X149566498Y-94880264D01*
X149420827Y-94940602D01*
X149420814Y-94940609D01*
X149289711Y-95028210D01*
X149289707Y-95028213D01*
X149178213Y-95139707D01*
X149178210Y-95139711D01*
X149090609Y-95270814D01*
X149090602Y-95270827D01*
X149030264Y-95416498D01*
X149030261Y-95416510D01*
X148999500Y-95571153D01*
X141824131Y-95571153D01*
X141828167Y-95545668D01*
X141855500Y-95373097D01*
X141855500Y-95136902D01*
X141818553Y-94903631D01*
X141745566Y-94679003D01*
X141638342Y-94468566D01*
X141618311Y-94440996D01*
X141499517Y-94277490D01*
X141332510Y-94110483D01*
X141141433Y-93971657D01*
X140930996Y-93864433D01*
X140706368Y-93791446D01*
X140473097Y-93754500D01*
X140473092Y-93754500D01*
X140236908Y-93754500D01*
X140236903Y-93754500D01*
X140003631Y-93791446D01*
X139779003Y-93864433D01*
X139568566Y-93971657D01*
X139512119Y-94012669D01*
X139377490Y-94110483D01*
X139377488Y-94110485D01*
X139377487Y-94110485D01*
X139210485Y-94277487D01*
X139210485Y-94277488D01*
X139210483Y-94277490D01*
X139150862Y-94359550D01*
X139071657Y-94468566D01*
X138964433Y-94679003D01*
X138891446Y-94903631D01*
X138854500Y-95136902D01*
X137797180Y-95136902D01*
X137972510Y-95009517D01*
X138139517Y-94842510D01*
X138278343Y-94651433D01*
X138385568Y-94440992D01*
X138458553Y-94216368D01*
X138475323Y-94110485D01*
X138495500Y-93983097D01*
X138495500Y-93746902D01*
X138458553Y-93513631D01*
X138411799Y-93369738D01*
X138385568Y-93289008D01*
X138385566Y-93289005D01*
X138385566Y-93289003D01*
X138329002Y-93177991D01*
X138278343Y-93078567D01*
X138139517Y-92887490D01*
X137972510Y-92720483D01*
X137781433Y-92581657D01*
X137662688Y-92521153D01*
X167599500Y-92521153D01*
X167599500Y-92678846D01*
X167630261Y-92833489D01*
X167630264Y-92833501D01*
X167690602Y-92979172D01*
X167690609Y-92979185D01*
X167778210Y-93110288D01*
X167778213Y-93110292D01*
X167889707Y-93221786D01*
X167889711Y-93221789D01*
X168020814Y-93309390D01*
X168020827Y-93309397D01*
X168115193Y-93348484D01*
X168166503Y-93369737D01*
X168321153Y-93400499D01*
X168321156Y-93400500D01*
X168321158Y-93400500D01*
X168478844Y-93400500D01*
X168478845Y-93400499D01*
X168633497Y-93369737D01*
X168779179Y-93309394D01*
X168910289Y-93221789D01*
X169021789Y-93110289D01*
X169109394Y-92979179D01*
X169169737Y-92833497D01*
X169200500Y-92678842D01*
X169200500Y-92521158D01*
X169200500Y-92521155D01*
X169200499Y-92521153D01*
X169191206Y-92474433D01*
X169169737Y-92366503D01*
X169139799Y-92294226D01*
X169109397Y-92220827D01*
X169109390Y-92220814D01*
X169021789Y-92089711D01*
X169021786Y-92089707D01*
X168910292Y-91978213D01*
X168910288Y-91978210D01*
X168779185Y-91890609D01*
X168779172Y-91890602D01*
X168633501Y-91830264D01*
X168633489Y-91830261D01*
X168478845Y-91799500D01*
X168478842Y-91799500D01*
X168321158Y-91799500D01*
X168321155Y-91799500D01*
X168166510Y-91830261D01*
X168166498Y-91830264D01*
X168020827Y-91890602D01*
X168020814Y-91890609D01*
X167889711Y-91978210D01*
X167889707Y-91978213D01*
X167778213Y-92089707D01*
X167778210Y-92089711D01*
X167690609Y-92220814D01*
X167690602Y-92220827D01*
X167630264Y-92366498D01*
X167630261Y-92366510D01*
X167599500Y-92521153D01*
X137662688Y-92521153D01*
X137570996Y-92474433D01*
X137346368Y-92401446D01*
X137113097Y-92364500D01*
X137113092Y-92364500D01*
X136876908Y-92364500D01*
X136876903Y-92364500D01*
X136643631Y-92401446D01*
X136419003Y-92474433D01*
X136208566Y-92581657D01*
X136099550Y-92660862D01*
X136017490Y-92720483D01*
X136017488Y-92720485D01*
X136017487Y-92720485D01*
X135850485Y-92887487D01*
X135850485Y-92887488D01*
X135850483Y-92887490D01*
X135790862Y-92969550D01*
X135711657Y-93078566D01*
X135604433Y-93289003D01*
X135531446Y-93513631D01*
X135494500Y-93746902D01*
X119355022Y-93746902D01*
X119059490Y-92997486D01*
X119058019Y-92993562D01*
X118696247Y-91975632D01*
X118694903Y-91971635D01*
X118669184Y-91890602D01*
X118368098Y-90941959D01*
X118366888Y-90937906D01*
X118146244Y-90150420D01*
X118075412Y-89897618D01*
X118074363Y-89893612D01*
X117818577Y-88843989D01*
X117817663Y-88839939D01*
X117803369Y-88771153D01*
X164349500Y-88771153D01*
X164349500Y-88928846D01*
X164380261Y-89083489D01*
X164380264Y-89083501D01*
X164440602Y-89229172D01*
X164440609Y-89229185D01*
X164528210Y-89360288D01*
X164528213Y-89360292D01*
X164639707Y-89471786D01*
X164639711Y-89471789D01*
X164770814Y-89559390D01*
X164770827Y-89559397D01*
X164916498Y-89619735D01*
X164916503Y-89619737D01*
X165071153Y-89650499D01*
X165071156Y-89650500D01*
X165071158Y-89650500D01*
X165228844Y-89650500D01*
X165228845Y-89650499D01*
X165383497Y-89619737D01*
X165529179Y-89559394D01*
X165660289Y-89471789D01*
X165771789Y-89360289D01*
X165859394Y-89229179D01*
X165919737Y-89083497D01*
X165950500Y-88928842D01*
X165950500Y-88771158D01*
X165950500Y-88771155D01*
X165950499Y-88771153D01*
X165919738Y-88616510D01*
X165919737Y-88616503D01*
X165883427Y-88528842D01*
X165859397Y-88470827D01*
X165859390Y-88470814D01*
X165771789Y-88339711D01*
X165771786Y-88339707D01*
X165660292Y-88228213D01*
X165660288Y-88228210D01*
X165529185Y-88140609D01*
X165529172Y-88140602D01*
X165383501Y-88080264D01*
X165383489Y-88080261D01*
X165228845Y-88049500D01*
X165228842Y-88049500D01*
X165071158Y-88049500D01*
X165071155Y-88049500D01*
X164916510Y-88080261D01*
X164916498Y-88080264D01*
X164770827Y-88140602D01*
X164770814Y-88140609D01*
X164639711Y-88228210D01*
X164639707Y-88228213D01*
X164528213Y-88339707D01*
X164528210Y-88339711D01*
X164440609Y-88470814D01*
X164440602Y-88470827D01*
X164380264Y-88616498D01*
X164380261Y-88616510D01*
X164349500Y-88771153D01*
X117803369Y-88771153D01*
X117672341Y-88140609D01*
X117597866Y-87782214D01*
X117597075Y-87778055D01*
X117503184Y-87233501D01*
X117432088Y-86821153D01*
X169549500Y-86821153D01*
X169549500Y-86978846D01*
X169580261Y-87133489D01*
X169580264Y-87133501D01*
X169640602Y-87279172D01*
X169640609Y-87279185D01*
X169728210Y-87410288D01*
X169728213Y-87410292D01*
X169839707Y-87521786D01*
X169839711Y-87521789D01*
X169970814Y-87609390D01*
X169970827Y-87609397D01*
X170112633Y-87668134D01*
X170116503Y-87669737D01*
X170271153Y-87700499D01*
X170271156Y-87700500D01*
X170271158Y-87700500D01*
X170428844Y-87700500D01*
X170428845Y-87700499D01*
X170583497Y-87669737D01*
X170729179Y-87609394D01*
X170860289Y-87521789D01*
X170971789Y-87410289D01*
X171059394Y-87279179D01*
X171119737Y-87133497D01*
X171150500Y-86978842D01*
X171150500Y-86921153D01*
X172949500Y-86921153D01*
X172949500Y-87078846D01*
X172980261Y-87233489D01*
X172980264Y-87233501D01*
X173040602Y-87379172D01*
X173040609Y-87379185D01*
X173128210Y-87510288D01*
X173128213Y-87510292D01*
X173239707Y-87621786D01*
X173239711Y-87621789D01*
X173370814Y-87709390D01*
X173370827Y-87709397D01*
X173446181Y-87740609D01*
X173516503Y-87769737D01*
X173577476Y-87781865D01*
X173639385Y-87814249D01*
X173673960Y-87874964D01*
X173670221Y-87944734D01*
X173656386Y-87972373D01*
X173590609Y-88070814D01*
X173590602Y-88070827D01*
X173530264Y-88216498D01*
X173530261Y-88216510D01*
X173499500Y-88371153D01*
X173499500Y-88528846D01*
X173530261Y-88683489D01*
X173530264Y-88683501D01*
X173590602Y-88829172D01*
X173590609Y-88829185D01*
X173678210Y-88960288D01*
X173678213Y-88960292D01*
X173789707Y-89071786D01*
X173789711Y-89071789D01*
X173920814Y-89159390D01*
X173920827Y-89159397D01*
X174066498Y-89219735D01*
X174066503Y-89219737D01*
X174221153Y-89250499D01*
X174221156Y-89250500D01*
X174221158Y-89250500D01*
X174378844Y-89250500D01*
X174378845Y-89250499D01*
X174533497Y-89219737D01*
X174679179Y-89159394D01*
X174810289Y-89071789D01*
X174921789Y-88960289D01*
X175009394Y-88829179D01*
X175069737Y-88683497D01*
X175100500Y-88528842D01*
X175100500Y-88371158D01*
X175100500Y-88371155D01*
X175100499Y-88371153D01*
X175072066Y-88228211D01*
X175069737Y-88216503D01*
X175038298Y-88140602D01*
X175009397Y-88070827D01*
X175009390Y-88070814D01*
X174921789Y-87939711D01*
X174921786Y-87939707D01*
X174810292Y-87828213D01*
X174810288Y-87828210D01*
X174679185Y-87740609D01*
X174679172Y-87740602D01*
X174533501Y-87680264D01*
X174533491Y-87680261D01*
X174472523Y-87668134D01*
X174410612Y-87635749D01*
X174376038Y-87575033D01*
X174379778Y-87505264D01*
X174393608Y-87477633D01*
X174459394Y-87379179D01*
X174519737Y-87233497D01*
X174550500Y-87078842D01*
X174550500Y-86921158D01*
X174550500Y-86921155D01*
X174550499Y-86921153D01*
X174533588Y-86836135D01*
X174519737Y-86766503D01*
X174519735Y-86766498D01*
X174459397Y-86620827D01*
X174459390Y-86620814D01*
X174371789Y-86489711D01*
X174371786Y-86489707D01*
X174260292Y-86378213D01*
X174260288Y-86378210D01*
X174129185Y-86290609D01*
X174129172Y-86290602D01*
X173983501Y-86230264D01*
X173983489Y-86230261D01*
X173828845Y-86199500D01*
X173828842Y-86199500D01*
X173671158Y-86199500D01*
X173671155Y-86199500D01*
X173516510Y-86230261D01*
X173516498Y-86230264D01*
X173370827Y-86290602D01*
X173370814Y-86290609D01*
X173239711Y-86378210D01*
X173239707Y-86378213D01*
X173128213Y-86489707D01*
X173128210Y-86489711D01*
X173040609Y-86620814D01*
X173040602Y-86620827D01*
X172980264Y-86766498D01*
X172980261Y-86766510D01*
X172949500Y-86921153D01*
X171150500Y-86921153D01*
X171150500Y-86821158D01*
X171150500Y-86821155D01*
X171150499Y-86821153D01*
X171128663Y-86711378D01*
X171119737Y-86666503D01*
X171100812Y-86620814D01*
X171059397Y-86520827D01*
X171059390Y-86520814D01*
X170971789Y-86389711D01*
X170971786Y-86389707D01*
X170860292Y-86278213D01*
X170860288Y-86278210D01*
X170729185Y-86190609D01*
X170729172Y-86190602D01*
X170583501Y-86130264D01*
X170583489Y-86130261D01*
X170428845Y-86099500D01*
X170428842Y-86099500D01*
X170271158Y-86099500D01*
X170271155Y-86099500D01*
X170116510Y-86130261D01*
X170116498Y-86130264D01*
X169970827Y-86190602D01*
X169970814Y-86190609D01*
X169839711Y-86278210D01*
X169839707Y-86278213D01*
X169728213Y-86389707D01*
X169728210Y-86389711D01*
X169640609Y-86520814D01*
X169640602Y-86520827D01*
X169580264Y-86666498D01*
X169580261Y-86666510D01*
X169549500Y-86821153D01*
X117432088Y-86821153D01*
X117413515Y-86713435D01*
X117412872Y-86709279D01*
X117386970Y-86520827D01*
X117265768Y-85639019D01*
X117265273Y-85634899D01*
X117258720Y-85571153D01*
X135949500Y-85571153D01*
X135949500Y-85728846D01*
X135980261Y-85883489D01*
X135980264Y-85883501D01*
X136040602Y-86029172D01*
X136040609Y-86029185D01*
X136128210Y-86160288D01*
X136128213Y-86160292D01*
X136239707Y-86271786D01*
X136239711Y-86271789D01*
X136370814Y-86359390D01*
X136370827Y-86359397D01*
X136444013Y-86389711D01*
X136516503Y-86419737D01*
X136671153Y-86450499D01*
X136671156Y-86450500D01*
X136671158Y-86450500D01*
X136828844Y-86450500D01*
X136828845Y-86450499D01*
X136983497Y-86419737D01*
X137129179Y-86359394D01*
X137260289Y-86271789D01*
X137371789Y-86160289D01*
X137459394Y-86029179D01*
X137519737Y-85883497D01*
X137550500Y-85728842D01*
X137550500Y-85571158D01*
X137550500Y-85571155D01*
X137550499Y-85571153D01*
X138849500Y-85571153D01*
X138849500Y-85728846D01*
X138880261Y-85883489D01*
X138880264Y-85883501D01*
X138940602Y-86029172D01*
X138940609Y-86029185D01*
X139028210Y-86160288D01*
X139028213Y-86160292D01*
X139139707Y-86271786D01*
X139139711Y-86271789D01*
X139270814Y-86359390D01*
X139270827Y-86359397D01*
X139344013Y-86389711D01*
X139416503Y-86419737D01*
X139571153Y-86450499D01*
X139571156Y-86450500D01*
X139571158Y-86450500D01*
X139728844Y-86450500D01*
X139728845Y-86450499D01*
X139883497Y-86419737D01*
X140029179Y-86359394D01*
X140160289Y-86271789D01*
X140271789Y-86160289D01*
X140359394Y-86029179D01*
X140419737Y-85883497D01*
X140450500Y-85728842D01*
X140450500Y-85571158D01*
X140450500Y-85571155D01*
X140450499Y-85571153D01*
X140419738Y-85416510D01*
X140419737Y-85416503D01*
X140392398Y-85350500D01*
X140359397Y-85270827D01*
X140359390Y-85270814D01*
X140271789Y-85139711D01*
X140271786Y-85139707D01*
X140160292Y-85028213D01*
X140160288Y-85028210D01*
X140029185Y-84940609D01*
X140029172Y-84940602D01*
X139883501Y-84880264D01*
X139883489Y-84880261D01*
X139728845Y-84849500D01*
X139728842Y-84849500D01*
X139571158Y-84849500D01*
X139571155Y-84849500D01*
X139416510Y-84880261D01*
X139416498Y-84880264D01*
X139270827Y-84940602D01*
X139270814Y-84940609D01*
X139139711Y-85028210D01*
X139139707Y-85028213D01*
X139028213Y-85139707D01*
X139028210Y-85139711D01*
X138940609Y-85270814D01*
X138940602Y-85270827D01*
X138880264Y-85416498D01*
X138880261Y-85416510D01*
X138849500Y-85571153D01*
X137550499Y-85571153D01*
X137519738Y-85416510D01*
X137519737Y-85416503D01*
X137492398Y-85350500D01*
X137459397Y-85270827D01*
X137459390Y-85270814D01*
X137371789Y-85139711D01*
X137371786Y-85139707D01*
X137260292Y-85028213D01*
X137260288Y-85028210D01*
X137129185Y-84940609D01*
X137129172Y-84940602D01*
X136983501Y-84880264D01*
X136983489Y-84880261D01*
X136828845Y-84849500D01*
X136828842Y-84849500D01*
X136671158Y-84849500D01*
X136671155Y-84849500D01*
X136516510Y-84880261D01*
X136516498Y-84880264D01*
X136370827Y-84940602D01*
X136370814Y-84940609D01*
X136239711Y-85028210D01*
X136239707Y-85028213D01*
X136128213Y-85139707D01*
X136128210Y-85139711D01*
X136040609Y-85270814D01*
X136040602Y-85270827D01*
X135980264Y-85416498D01*
X135980261Y-85416510D01*
X135949500Y-85571153D01*
X117258720Y-85571153D01*
X117154793Y-84560218D01*
X117154434Y-84556017D01*
X117149039Y-84477139D01*
X117102622Y-83798543D01*
X170099499Y-83798543D01*
X170137947Y-83991829D01*
X170137950Y-83991839D01*
X170213364Y-84173907D01*
X170213371Y-84173920D01*
X170322860Y-84337781D01*
X170322863Y-84337785D01*
X170462214Y-84477136D01*
X170462218Y-84477139D01*
X170626079Y-84586628D01*
X170626092Y-84586635D01*
X170728000Y-84628846D01*
X170808165Y-84662051D01*
X170808169Y-84662051D01*
X170808170Y-84662052D01*
X171001456Y-84700500D01*
X171001459Y-84700500D01*
X171198543Y-84700500D01*
X171328582Y-84674632D01*
X171391835Y-84662051D01*
X171573914Y-84586632D01*
X171737782Y-84477139D01*
X171743768Y-84471153D01*
X174299500Y-84471153D01*
X174299500Y-84628846D01*
X174330261Y-84783489D01*
X174330264Y-84783501D01*
X174390602Y-84929172D01*
X174390609Y-84929185D01*
X174478210Y-85060288D01*
X174478213Y-85060292D01*
X174589707Y-85171786D01*
X174589711Y-85171789D01*
X174720814Y-85259390D01*
X174720827Y-85259397D01*
X174866498Y-85319735D01*
X174866503Y-85319737D01*
X175021153Y-85350499D01*
X175021156Y-85350500D01*
X175021158Y-85350500D01*
X175178844Y-85350500D01*
X175178845Y-85350499D01*
X175333497Y-85319737D01*
X175451592Y-85270821D01*
X175479172Y-85259397D01*
X175479172Y-85259396D01*
X175479179Y-85259394D01*
X175610289Y-85171789D01*
X175721789Y-85060289D01*
X175737839Y-85036267D01*
X175791449Y-84991461D01*
X175860774Y-84982751D01*
X175909835Y-85002054D01*
X175920813Y-85009389D01*
X175920815Y-85009390D01*
X175920821Y-85009394D01*
X175920823Y-85009395D01*
X175920827Y-85009397D01*
X176066498Y-85069735D01*
X176066503Y-85069737D01*
X176221153Y-85100499D01*
X176221156Y-85100500D01*
X176221158Y-85100500D01*
X176378844Y-85100500D01*
X176378845Y-85100499D01*
X176533497Y-85069737D01*
X176679179Y-85009394D01*
X176810289Y-84921789D01*
X176921789Y-84810289D01*
X177009394Y-84679179D01*
X177069737Y-84533497D01*
X177100500Y-84378842D01*
X177100500Y-84221158D01*
X177100500Y-84221155D01*
X177100499Y-84221153D01*
X177091104Y-84173920D01*
X177069737Y-84066503D01*
X177069735Y-84066498D01*
X177009397Y-83920827D01*
X177009390Y-83920814D01*
X176921789Y-83789711D01*
X176921786Y-83789707D01*
X176810292Y-83678213D01*
X176810288Y-83678210D01*
X176679185Y-83590609D01*
X176679172Y-83590602D01*
X176533501Y-83530264D01*
X176533489Y-83530261D01*
X176378845Y-83499500D01*
X176378842Y-83499500D01*
X176221158Y-83499500D01*
X176221155Y-83499500D01*
X176066510Y-83530261D01*
X176066498Y-83530264D01*
X175920827Y-83590602D01*
X175920814Y-83590609D01*
X175789711Y-83678210D01*
X175789707Y-83678213D01*
X175678213Y-83789707D01*
X175678209Y-83789712D01*
X175662155Y-83813738D01*
X175608541Y-83858541D01*
X175539216Y-83867247D01*
X175490164Y-83847946D01*
X175479176Y-83840604D01*
X175333501Y-83780264D01*
X175333489Y-83780261D01*
X175178845Y-83749500D01*
X175178842Y-83749500D01*
X175021158Y-83749500D01*
X175021155Y-83749500D01*
X174866510Y-83780261D01*
X174866498Y-83780264D01*
X174720827Y-83840602D01*
X174720814Y-83840609D01*
X174589711Y-83928210D01*
X174589707Y-83928213D01*
X174478213Y-84039707D01*
X174478210Y-84039711D01*
X174390609Y-84170814D01*
X174390602Y-84170827D01*
X174330264Y-84316498D01*
X174330261Y-84316510D01*
X174299500Y-84471153D01*
X171743768Y-84471153D01*
X171837537Y-84377385D01*
X171877136Y-84337785D01*
X171877139Y-84337782D01*
X171986632Y-84173914D01*
X172062051Y-83991835D01*
X172076969Y-83916837D01*
X172100500Y-83798543D01*
X172100500Y-83601456D01*
X172062052Y-83408170D01*
X172062051Y-83408169D01*
X172062051Y-83408165D01*
X172029334Y-83329179D01*
X171986635Y-83226092D01*
X171986628Y-83226079D01*
X171877139Y-83062218D01*
X171877136Y-83062214D01*
X171737785Y-82922863D01*
X171737781Y-82922860D01*
X171573920Y-82813371D01*
X171573907Y-82813364D01*
X171391839Y-82737950D01*
X171391829Y-82737947D01*
X171198543Y-82699500D01*
X171198541Y-82699500D01*
X171001459Y-82699500D01*
X171001457Y-82699500D01*
X170808170Y-82737947D01*
X170808160Y-82737950D01*
X170626092Y-82813364D01*
X170626079Y-82813371D01*
X170462218Y-82922860D01*
X170462214Y-82922863D01*
X170322863Y-83062214D01*
X170322860Y-83062218D01*
X170213371Y-83226079D01*
X170213364Y-83226092D01*
X170137950Y-83408160D01*
X170137947Y-83408170D01*
X170099500Y-83601456D01*
X170099500Y-83601459D01*
X170099500Y-83798541D01*
X170099500Y-83798543D01*
X170099499Y-83798543D01*
X117102622Y-83798543D01*
X117080710Y-83478206D01*
X117080498Y-83474086D01*
X117059901Y-82871153D01*
X148949500Y-82871153D01*
X148949500Y-83028846D01*
X148980261Y-83183489D01*
X148980264Y-83183501D01*
X149040602Y-83329172D01*
X149040609Y-83329185D01*
X149128210Y-83460288D01*
X149128213Y-83460292D01*
X149239707Y-83571786D01*
X149239711Y-83571789D01*
X149370814Y-83659390D01*
X149370827Y-83659397D01*
X149416254Y-83678213D01*
X149516503Y-83719737D01*
X149666131Y-83749500D01*
X149671153Y-83750499D01*
X149671156Y-83750500D01*
X149671158Y-83750500D01*
X149828844Y-83750500D01*
X149828845Y-83750499D01*
X149983497Y-83719737D01*
X150129179Y-83659394D01*
X150260289Y-83571789D01*
X150260292Y-83571786D01*
X150324393Y-83507686D01*
X150371786Y-83460292D01*
X150371789Y-83460289D01*
X150459394Y-83329179D01*
X150519737Y-83183497D01*
X150550500Y-83028842D01*
X150550500Y-82871158D01*
X150550500Y-82871155D01*
X150550499Y-82871153D01*
X150524003Y-82737949D01*
X150519737Y-82716503D01*
X150485076Y-82632823D01*
X150459397Y-82570827D01*
X150459390Y-82570814D01*
X150371789Y-82439711D01*
X150371786Y-82439707D01*
X150260292Y-82328213D01*
X150260288Y-82328210D01*
X150129185Y-82240609D01*
X150129172Y-82240602D01*
X149983501Y-82180264D01*
X149983489Y-82180261D01*
X149828845Y-82149500D01*
X149828842Y-82149500D01*
X149671158Y-82149500D01*
X149671155Y-82149500D01*
X149516510Y-82180261D01*
X149516498Y-82180264D01*
X149370827Y-82240602D01*
X149370814Y-82240609D01*
X149239711Y-82328210D01*
X149239707Y-82328213D01*
X149128213Y-82439707D01*
X149128210Y-82439711D01*
X149040609Y-82570814D01*
X149040602Y-82570827D01*
X148980264Y-82716498D01*
X148980261Y-82716510D01*
X148949500Y-82871153D01*
X117059901Y-82871153D01*
X117043614Y-82394364D01*
X117043542Y-82390131D01*
X117043542Y-81309868D01*
X117043614Y-81305635D01*
X117060870Y-80800499D01*
X117080498Y-80225910D01*
X117080709Y-80221796D01*
X117154435Y-79143958D01*
X117154795Y-79139763D01*
X117172129Y-78971153D01*
X125699500Y-78971153D01*
X125699500Y-79128846D01*
X125730261Y-79283489D01*
X125730264Y-79283501D01*
X125790602Y-79429172D01*
X125790609Y-79429185D01*
X125878210Y-79560288D01*
X125878213Y-79560292D01*
X125989707Y-79671786D01*
X125989711Y-79671789D01*
X126120814Y-79759390D01*
X126120827Y-79759397D01*
X126266498Y-79819735D01*
X126266503Y-79819737D01*
X126421153Y-79850499D01*
X126421156Y-79850500D01*
X126421158Y-79850500D01*
X126578844Y-79850500D01*
X126578845Y-79850499D01*
X126733497Y-79819737D01*
X126879179Y-79759394D01*
X127010289Y-79671789D01*
X127121789Y-79560289D01*
X127209394Y-79429179D01*
X127269737Y-79283497D01*
X127282138Y-79221153D01*
X133449500Y-79221153D01*
X133449500Y-79378846D01*
X133480261Y-79533489D01*
X133480264Y-79533501D01*
X133540602Y-79679172D01*
X133540609Y-79679185D01*
X133628210Y-79810288D01*
X133628213Y-79810292D01*
X133739707Y-79921786D01*
X133739711Y-79921789D01*
X133870814Y-80009390D01*
X133870827Y-80009397D01*
X134016498Y-80069735D01*
X134016503Y-80069737D01*
X134171153Y-80100499D01*
X134171156Y-80100500D01*
X134171158Y-80100500D01*
X134328844Y-80100500D01*
X134328845Y-80100499D01*
X134483497Y-80069737D01*
X134629179Y-80009394D01*
X134760289Y-79921789D01*
X134760925Y-79921153D01*
X139899500Y-79921153D01*
X139899500Y-80078846D01*
X139930261Y-80233489D01*
X139930264Y-80233501D01*
X139990602Y-80379172D01*
X139990609Y-80379185D01*
X140078210Y-80510288D01*
X140078213Y-80510292D01*
X140189707Y-80621786D01*
X140189711Y-80621789D01*
X140320814Y-80709390D01*
X140320827Y-80709397D01*
X140466498Y-80769735D01*
X140466503Y-80769737D01*
X140621153Y-80800499D01*
X140621156Y-80800500D01*
X140621158Y-80800500D01*
X140778844Y-80800500D01*
X140778845Y-80800499D01*
X140933497Y-80769737D01*
X141079179Y-80709394D01*
X141210289Y-80621789D01*
X141321789Y-80510289D01*
X141409394Y-80379179D01*
X141428809Y-80332306D01*
X152399500Y-80332306D01*
X152399500Y-81932324D01*
X152399501Y-81932341D01*
X152410000Y-82035119D01*
X152410001Y-82035122D01*
X152447903Y-82149500D01*
X152465186Y-82201657D01*
X152557288Y-82350979D01*
X152681344Y-82475035D01*
X152830666Y-82567137D01*
X152997203Y-82622322D01*
X153099991Y-82632823D01*
X154700008Y-82632822D01*
X154802797Y-82622322D01*
X154969334Y-82567137D01*
X155118656Y-82475035D01*
X155242712Y-82350979D01*
X155334814Y-82201657D01*
X155389999Y-82035120D01*
X155400500Y-81932332D01*
X155400499Y-80332315D01*
X155389999Y-80229526D01*
X155334814Y-80062989D01*
X155242712Y-79913667D01*
X155118656Y-79789611D01*
X154969334Y-79697509D01*
X154802797Y-79642324D01*
X154802795Y-79642323D01*
X154700010Y-79631823D01*
X153099998Y-79631823D01*
X153099981Y-79631824D01*
X152997203Y-79642323D01*
X152997200Y-79642324D01*
X152830668Y-79697508D01*
X152830663Y-79697510D01*
X152681342Y-79789612D01*
X152557289Y-79913665D01*
X152465187Y-80062986D01*
X152465185Y-80062991D01*
X152452756Y-80100499D01*
X152410001Y-80229526D01*
X152410001Y-80229527D01*
X152410000Y-80229527D01*
X152399500Y-80332306D01*
X141428809Y-80332306D01*
X141469737Y-80233497D01*
X141500500Y-80078842D01*
X141500500Y-79921158D01*
X141500500Y-79921155D01*
X141500499Y-79921153D01*
X141480326Y-79819737D01*
X141469737Y-79766503D01*
X141466791Y-79759390D01*
X141409397Y-79620827D01*
X141409390Y-79620814D01*
X141321789Y-79489711D01*
X141321786Y-79489707D01*
X141210292Y-79378213D01*
X141210288Y-79378210D01*
X141079185Y-79290609D01*
X141079172Y-79290602D01*
X140933501Y-79230264D01*
X140933489Y-79230261D01*
X140778845Y-79199500D01*
X140778842Y-79199500D01*
X140621158Y-79199500D01*
X140621155Y-79199500D01*
X140466510Y-79230261D01*
X140466498Y-79230264D01*
X140320827Y-79290602D01*
X140320814Y-79290609D01*
X140189711Y-79378210D01*
X140189707Y-79378213D01*
X140078213Y-79489707D01*
X140078210Y-79489711D01*
X139990609Y-79620814D01*
X139990602Y-79620827D01*
X139930264Y-79766498D01*
X139930261Y-79766510D01*
X139899500Y-79921153D01*
X134760925Y-79921153D01*
X134768413Y-79913665D01*
X134854694Y-79827385D01*
X134871786Y-79810292D01*
X134871789Y-79810289D01*
X134959394Y-79679179D01*
X135019737Y-79533497D01*
X135050500Y-79378842D01*
X135050500Y-79221158D01*
X135050500Y-79221155D01*
X135050499Y-79221153D01*
X135040271Y-79169735D01*
X135019737Y-79066503D01*
X134980242Y-78971153D01*
X134959397Y-78920827D01*
X134959390Y-78920814D01*
X134871789Y-78789711D01*
X134871786Y-78789707D01*
X134760292Y-78678213D01*
X134760288Y-78678210D01*
X134629185Y-78590609D01*
X134629172Y-78590602D01*
X134483501Y-78530264D01*
X134483489Y-78530261D01*
X134328845Y-78499500D01*
X134328842Y-78499500D01*
X134171158Y-78499500D01*
X134171155Y-78499500D01*
X134016510Y-78530261D01*
X134016498Y-78530264D01*
X133870827Y-78590602D01*
X133870814Y-78590609D01*
X133739711Y-78678210D01*
X133739707Y-78678213D01*
X133628213Y-78789707D01*
X133628210Y-78789711D01*
X133540609Y-78920814D01*
X133540602Y-78920827D01*
X133480264Y-79066498D01*
X133480261Y-79066510D01*
X133449500Y-79221153D01*
X127282138Y-79221153D01*
X127286246Y-79200500D01*
X127288161Y-79190875D01*
X127288161Y-79190874D01*
X127300500Y-79128844D01*
X127300500Y-78971155D01*
X127300499Y-78971153D01*
X127269738Y-78816510D01*
X127269737Y-78816503D01*
X127269735Y-78816498D01*
X127209397Y-78670827D01*
X127209390Y-78670814D01*
X127121789Y-78539711D01*
X127121786Y-78539707D01*
X127010292Y-78428213D01*
X127010288Y-78428210D01*
X126879185Y-78340609D01*
X126879172Y-78340602D01*
X126733501Y-78280264D01*
X126733489Y-78280261D01*
X126578845Y-78249500D01*
X126578842Y-78249500D01*
X126421158Y-78249500D01*
X126421155Y-78249500D01*
X126266510Y-78280261D01*
X126266498Y-78280264D01*
X126120827Y-78340602D01*
X126120814Y-78340609D01*
X125989711Y-78428210D01*
X125989707Y-78428213D01*
X125878213Y-78539707D01*
X125878210Y-78539711D01*
X125790609Y-78670814D01*
X125790602Y-78670827D01*
X125730264Y-78816498D01*
X125730261Y-78816510D01*
X125699500Y-78971153D01*
X117172129Y-78971153D01*
X117265275Y-78065086D01*
X117265767Y-78060987D01*
X117350670Y-77443273D01*
X132299500Y-77443273D01*
X132299500Y-77600966D01*
X132330261Y-77755609D01*
X132330264Y-77755621D01*
X132390602Y-77901292D01*
X132390609Y-77901305D01*
X132478210Y-78032408D01*
X132478213Y-78032412D01*
X132589707Y-78143906D01*
X132589711Y-78143909D01*
X132720814Y-78231510D01*
X132720827Y-78231517D01*
X132866498Y-78291855D01*
X132866503Y-78291857D01*
X133013783Y-78321153D01*
X133021153Y-78322619D01*
X133021156Y-78322620D01*
X133021158Y-78322620D01*
X133178844Y-78322620D01*
X133178845Y-78322619D01*
X133186215Y-78321153D01*
X155149500Y-78321153D01*
X155149500Y-78478846D01*
X155180261Y-78633489D01*
X155180264Y-78633501D01*
X155240602Y-78779172D01*
X155240609Y-78779185D01*
X155328210Y-78910288D01*
X155328213Y-78910292D01*
X155439707Y-79021786D01*
X155439711Y-79021789D01*
X155570814Y-79109390D01*
X155570827Y-79109397D01*
X155654324Y-79143982D01*
X155716503Y-79169737D01*
X155866131Y-79199500D01*
X155871153Y-79200499D01*
X155871156Y-79200500D01*
X155871158Y-79200500D01*
X156028844Y-79200500D01*
X156028845Y-79200499D01*
X156183497Y-79169737D01*
X156329179Y-79109394D01*
X156460289Y-79021789D01*
X156571789Y-78910289D01*
X156659394Y-78779179D01*
X156719737Y-78633497D01*
X156750500Y-78478842D01*
X156750500Y-78321158D01*
X156750500Y-78321155D01*
X156750499Y-78321153D01*
X156732669Y-78231517D01*
X156719737Y-78166503D01*
X156677751Y-78065139D01*
X156659397Y-78020827D01*
X156659390Y-78020814D01*
X156571789Y-77889711D01*
X156571786Y-77889707D01*
X156460292Y-77778213D01*
X156460288Y-77778210D01*
X156329185Y-77690609D01*
X156329172Y-77690602D01*
X156183501Y-77630264D01*
X156183489Y-77630261D01*
X156028845Y-77599500D01*
X156028842Y-77599500D01*
X155871158Y-77599500D01*
X155871155Y-77599500D01*
X155716510Y-77630261D01*
X155716498Y-77630264D01*
X155570827Y-77690602D01*
X155570814Y-77690609D01*
X155439711Y-77778210D01*
X155439707Y-77778213D01*
X155328213Y-77889707D01*
X155328210Y-77889711D01*
X155240609Y-78020814D01*
X155240602Y-78020827D01*
X155180264Y-78166498D01*
X155180261Y-78166510D01*
X155149500Y-78321153D01*
X133186215Y-78321153D01*
X133333497Y-78291857D01*
X133479179Y-78231514D01*
X133610289Y-78143909D01*
X133721789Y-78032409D01*
X133809394Y-77901299D01*
X133869737Y-77755617D01*
X133900500Y-77600962D01*
X133900500Y-77443278D01*
X133900500Y-77443275D01*
X133900499Y-77443273D01*
X133896099Y-77421153D01*
X133869737Y-77288623D01*
X133816580Y-77160289D01*
X133809397Y-77142947D01*
X133809390Y-77142934D01*
X133721789Y-77011831D01*
X133721786Y-77011827D01*
X133610289Y-76900330D01*
X133562154Y-76868168D01*
X133479185Y-76812729D01*
X133479172Y-76812722D01*
X133378814Y-76771153D01*
X134099500Y-76771153D01*
X134099500Y-76928846D01*
X134130261Y-77083489D01*
X134130264Y-77083501D01*
X134190602Y-77229172D01*
X134190609Y-77229185D01*
X134278210Y-77360288D01*
X134278213Y-77360292D01*
X134389707Y-77471786D01*
X134389711Y-77471789D01*
X134520814Y-77559390D01*
X134520827Y-77559397D01*
X134666498Y-77619735D01*
X134666503Y-77619737D01*
X134821153Y-77650499D01*
X134821156Y-77650500D01*
X134821158Y-77650500D01*
X134978844Y-77650500D01*
X134978845Y-77650499D01*
X135133497Y-77619737D01*
X135279179Y-77559394D01*
X135410289Y-77471789D01*
X135521789Y-77360289D01*
X135609394Y-77229179D01*
X135669737Y-77083497D01*
X135669739Y-77083486D01*
X135671506Y-77077664D01*
X135673100Y-77078147D01*
X135701761Y-77023334D01*
X135743553Y-76994860D01*
X135829179Y-76959394D01*
X135960289Y-76871789D01*
X136010925Y-76821153D01*
X142949500Y-76821153D01*
X142949500Y-76978846D01*
X142980261Y-77133489D01*
X142980264Y-77133501D01*
X143040602Y-77279172D01*
X143040609Y-77279185D01*
X143128210Y-77410288D01*
X143128213Y-77410292D01*
X143239707Y-77521786D01*
X143239711Y-77521789D01*
X143370814Y-77609390D01*
X143370827Y-77609397D01*
X143470060Y-77650500D01*
X143516503Y-77669737D01*
X143671153Y-77700499D01*
X143671156Y-77700500D01*
X143671158Y-77700500D01*
X143828844Y-77700500D01*
X143828845Y-77700499D01*
X143983497Y-77669737D01*
X144129179Y-77609394D01*
X144260289Y-77521789D01*
X144360925Y-77421153D01*
X162349500Y-77421153D01*
X162349500Y-77578846D01*
X162380261Y-77733489D01*
X162380264Y-77733501D01*
X162440602Y-77879172D01*
X162440609Y-77879185D01*
X162528210Y-78010288D01*
X162528213Y-78010292D01*
X162639707Y-78121786D01*
X162639711Y-78121789D01*
X162770814Y-78209390D01*
X162770827Y-78209397D01*
X162867646Y-78249500D01*
X162916503Y-78269737D01*
X163071153Y-78300499D01*
X163071156Y-78300500D01*
X163071158Y-78300500D01*
X163228844Y-78300500D01*
X163228845Y-78300499D01*
X163383497Y-78269737D01*
X163496166Y-78223067D01*
X163529172Y-78209397D01*
X163529172Y-78209396D01*
X163529179Y-78209394D01*
X163660289Y-78121789D01*
X163771789Y-78010289D01*
X163859394Y-77879179D01*
X163919737Y-77733497D01*
X163950500Y-77578842D01*
X163950500Y-77421158D01*
X163950500Y-77421155D01*
X163950499Y-77421153D01*
X163924136Y-77288618D01*
X163919737Y-77266503D01*
X163919735Y-77266498D01*
X163859397Y-77120827D01*
X163859390Y-77120814D01*
X163771789Y-76989711D01*
X163771786Y-76989707D01*
X163660292Y-76878213D01*
X163660288Y-76878210D01*
X163529185Y-76790609D01*
X163529172Y-76790602D01*
X163383501Y-76730264D01*
X163383489Y-76730261D01*
X163228845Y-76699500D01*
X163228842Y-76699500D01*
X163071158Y-76699500D01*
X163071155Y-76699500D01*
X162916510Y-76730261D01*
X162916498Y-76730264D01*
X162770827Y-76790602D01*
X162770814Y-76790609D01*
X162639711Y-76878210D01*
X162639707Y-76878213D01*
X162528213Y-76989707D01*
X162528210Y-76989711D01*
X162440609Y-77120814D01*
X162440602Y-77120827D01*
X162380264Y-77266498D01*
X162380261Y-77266510D01*
X162349500Y-77421153D01*
X144360925Y-77421153D01*
X144371789Y-77410289D01*
X144459394Y-77279179D01*
X144519737Y-77133497D01*
X144550500Y-76978842D01*
X144550500Y-76821158D01*
X144550500Y-76821155D01*
X144550499Y-76821153D01*
X144532137Y-76728842D01*
X144519737Y-76666503D01*
X144480242Y-76571153D01*
X167499500Y-76571153D01*
X167499500Y-76728846D01*
X167530261Y-76883489D01*
X167530264Y-76883501D01*
X167590602Y-77029172D01*
X167590609Y-77029185D01*
X167678210Y-77160288D01*
X167678213Y-77160292D01*
X167789707Y-77271786D01*
X167789711Y-77271789D01*
X167920814Y-77359390D01*
X167920827Y-77359397D01*
X168066498Y-77419735D01*
X168066503Y-77419737D01*
X168184826Y-77443273D01*
X168221153Y-77450499D01*
X168221156Y-77450500D01*
X168221158Y-77450500D01*
X168378844Y-77450500D01*
X168378845Y-77450499D01*
X168533497Y-77419737D01*
X168679179Y-77359394D01*
X168810289Y-77271789D01*
X168921789Y-77160289D01*
X169009394Y-77029179D01*
X169069737Y-76883497D01*
X169100500Y-76728842D01*
X169100500Y-76571158D01*
X169100500Y-76571155D01*
X169100499Y-76571153D01*
X169080543Y-76470827D01*
X169069737Y-76416503D01*
X169069735Y-76416498D01*
X169009397Y-76270827D01*
X169009390Y-76270814D01*
X168921789Y-76139711D01*
X168921786Y-76139707D01*
X168810292Y-76028213D01*
X168810288Y-76028210D01*
X168679185Y-75940609D01*
X168679172Y-75940602D01*
X168533501Y-75880264D01*
X168533489Y-75880261D01*
X168378845Y-75849500D01*
X168378842Y-75849500D01*
X168221158Y-75849500D01*
X168221155Y-75849500D01*
X168066510Y-75880261D01*
X168066498Y-75880264D01*
X167920827Y-75940602D01*
X167920814Y-75940609D01*
X167789711Y-76028210D01*
X167789707Y-76028213D01*
X167678213Y-76139707D01*
X167678210Y-76139711D01*
X167590609Y-76270814D01*
X167590602Y-76270827D01*
X167530264Y-76416498D01*
X167530261Y-76416510D01*
X167499500Y-76571153D01*
X144480242Y-76571153D01*
X144479933Y-76570408D01*
X144459397Y-76520827D01*
X144459390Y-76520814D01*
X144371789Y-76389711D01*
X144371786Y-76389707D01*
X144260292Y-76278213D01*
X144260288Y-76278210D01*
X144129185Y-76190609D01*
X144129172Y-76190602D01*
X143983501Y-76130264D01*
X143983489Y-76130261D01*
X143828845Y-76099500D01*
X143828842Y-76099500D01*
X143671158Y-76099500D01*
X143671155Y-76099500D01*
X143516510Y-76130261D01*
X143516498Y-76130264D01*
X143370827Y-76190602D01*
X143370814Y-76190609D01*
X143239711Y-76278210D01*
X143239707Y-76278213D01*
X143128213Y-76389707D01*
X143128210Y-76389711D01*
X143040609Y-76520814D01*
X143040602Y-76520827D01*
X142980264Y-76666498D01*
X142980261Y-76666510D01*
X142949500Y-76821153D01*
X136010925Y-76821153D01*
X136071789Y-76760289D01*
X136092802Y-76728842D01*
X136159390Y-76629185D01*
X136159390Y-76629184D01*
X136159394Y-76629179D01*
X136219737Y-76483497D01*
X136250500Y-76328842D01*
X136250500Y-76171158D01*
X136250500Y-76171155D01*
X136250499Y-76171153D01*
X136222066Y-76028211D01*
X136219737Y-76016503D01*
X136180570Y-75921944D01*
X136159397Y-75870827D01*
X136159390Y-75870814D01*
X136071789Y-75739711D01*
X136071786Y-75739707D01*
X135960292Y-75628213D01*
X135960288Y-75628210D01*
X135846726Y-75552330D01*
X135801921Y-75498718D01*
X135793214Y-75429393D01*
X135823369Y-75366365D01*
X135868165Y-75334667D01*
X135929172Y-75309397D01*
X135929172Y-75309396D01*
X135929179Y-75309394D01*
X136060289Y-75221789D01*
X136171789Y-75110289D01*
X136259394Y-74979179D01*
X136319737Y-74833497D01*
X136350500Y-74678842D01*
X136350500Y-74621153D01*
X138499500Y-74621153D01*
X138499500Y-74778846D01*
X138530261Y-74933489D01*
X138530264Y-74933501D01*
X138590602Y-75079172D01*
X138590609Y-75079185D01*
X138678210Y-75210288D01*
X138678213Y-75210292D01*
X138789707Y-75321786D01*
X138789711Y-75321789D01*
X138920814Y-75409390D01*
X138920827Y-75409397D01*
X139066498Y-75469735D01*
X139066503Y-75469737D01*
X139212199Y-75498718D01*
X139221153Y-75500499D01*
X139221156Y-75500500D01*
X139221158Y-75500500D01*
X139378844Y-75500500D01*
X139378845Y-75500499D01*
X139533497Y-75469737D01*
X139679179Y-75409394D01*
X139810289Y-75321789D01*
X139921789Y-75210289D01*
X140009394Y-75079179D01*
X140069737Y-74933497D01*
X140082138Y-74871153D01*
X171499500Y-74871153D01*
X171499500Y-75028846D01*
X171530261Y-75183489D01*
X171530264Y-75183501D01*
X171590602Y-75329172D01*
X171590609Y-75329185D01*
X171678210Y-75460288D01*
X171678213Y-75460292D01*
X171789707Y-75571786D01*
X171789711Y-75571789D01*
X171920814Y-75659390D01*
X171920827Y-75659397D01*
X172066498Y-75719735D01*
X172066503Y-75719737D01*
X172221153Y-75750499D01*
X172221156Y-75750500D01*
X172221158Y-75750500D01*
X172378844Y-75750500D01*
X172378845Y-75750499D01*
X172533497Y-75719737D01*
X172679179Y-75659394D01*
X172810289Y-75571789D01*
X172921789Y-75460289D01*
X173009394Y-75329179D01*
X173069737Y-75183497D01*
X173100500Y-75028842D01*
X173100500Y-74871158D01*
X173100500Y-74871155D01*
X173100499Y-74871153D01*
X173094476Y-74840874D01*
X173069737Y-74716503D01*
X173069735Y-74716498D01*
X173009397Y-74570827D01*
X173009390Y-74570814D01*
X172921789Y-74439711D01*
X172921786Y-74439707D01*
X172810292Y-74328213D01*
X172810288Y-74328210D01*
X172679185Y-74240609D01*
X172679172Y-74240602D01*
X172533501Y-74180264D01*
X172533489Y-74180261D01*
X172378845Y-74149500D01*
X172378842Y-74149500D01*
X172221158Y-74149500D01*
X172221155Y-74149500D01*
X172066510Y-74180261D01*
X172066498Y-74180264D01*
X171920827Y-74240602D01*
X171920814Y-74240609D01*
X171789711Y-74328210D01*
X171789707Y-74328213D01*
X171678213Y-74439707D01*
X171678210Y-74439711D01*
X171590609Y-74570814D01*
X171590602Y-74570827D01*
X171530264Y-74716498D01*
X171530261Y-74716510D01*
X171499500Y-74871153D01*
X140082138Y-74871153D01*
X140094245Y-74810288D01*
X140100500Y-74778844D01*
X140100500Y-74621155D01*
X140100499Y-74621153D01*
X140083061Y-74533489D01*
X140069737Y-74466503D01*
X140069735Y-74466498D01*
X140009397Y-74320827D01*
X140009390Y-74320814D01*
X139921789Y-74189711D01*
X139921786Y-74189707D01*
X139810292Y-74078213D01*
X139810288Y-74078210D01*
X139679185Y-73990609D01*
X139679172Y-73990602D01*
X139533501Y-73930264D01*
X139533489Y-73930261D01*
X139378845Y-73899500D01*
X139378842Y-73899500D01*
X139221158Y-73899500D01*
X139221155Y-73899500D01*
X139066510Y-73930261D01*
X139066498Y-73930264D01*
X138920827Y-73990602D01*
X138920814Y-73990609D01*
X138789711Y-74078210D01*
X138789707Y-74078213D01*
X138678213Y-74189707D01*
X138678210Y-74189711D01*
X138590609Y-74320814D01*
X138590602Y-74320827D01*
X138530264Y-74466498D01*
X138530261Y-74466510D01*
X138499500Y-74621153D01*
X136350500Y-74621153D01*
X136350500Y-74521158D01*
X136350500Y-74521155D01*
X136350499Y-74521153D01*
X136322192Y-74378846D01*
X136319737Y-74366503D01*
X136300812Y-74320814D01*
X136259397Y-74220827D01*
X136259390Y-74220814D01*
X136171789Y-74089711D01*
X136171786Y-74089707D01*
X136060292Y-73978213D01*
X136060288Y-73978210D01*
X135929185Y-73890609D01*
X135929172Y-73890602D01*
X135783501Y-73830264D01*
X135783489Y-73830261D01*
X135628845Y-73799500D01*
X135628842Y-73799500D01*
X135471158Y-73799500D01*
X135471155Y-73799500D01*
X135316510Y-73830261D01*
X135316498Y-73830264D01*
X135170827Y-73890602D01*
X135170814Y-73890609D01*
X135039711Y-73978210D01*
X135039707Y-73978213D01*
X134928213Y-74089707D01*
X134928210Y-74089711D01*
X134840609Y-74220814D01*
X134840602Y-74220827D01*
X134780264Y-74366498D01*
X134780261Y-74366510D01*
X134749500Y-74521153D01*
X134749500Y-74678846D01*
X134780261Y-74833489D01*
X134780264Y-74833501D01*
X134840602Y-74979172D01*
X134840609Y-74979185D01*
X134928210Y-75110288D01*
X134928213Y-75110292D01*
X135039707Y-75221786D01*
X135039711Y-75221789D01*
X135153273Y-75297669D01*
X135198078Y-75351281D01*
X135206785Y-75420606D01*
X135176631Y-75483633D01*
X135131836Y-75515331D01*
X135070829Y-75540601D01*
X135070814Y-75540609D01*
X134939711Y-75628210D01*
X134939707Y-75628213D01*
X134828213Y-75739707D01*
X134828210Y-75739711D01*
X134740609Y-75870814D01*
X134740602Y-75870827D01*
X134680263Y-76016500D01*
X134678493Y-76022337D01*
X134676907Y-76021855D01*
X134648201Y-76076702D01*
X134606442Y-76105140D01*
X134520824Y-76140604D01*
X134520814Y-76140609D01*
X134389711Y-76228210D01*
X134389707Y-76228213D01*
X134278213Y-76339707D01*
X134278210Y-76339711D01*
X134190609Y-76470814D01*
X134190602Y-76470827D01*
X134130264Y-76616498D01*
X134130261Y-76616510D01*
X134099500Y-76771153D01*
X133378814Y-76771153D01*
X133333501Y-76752384D01*
X133333489Y-76752381D01*
X133178845Y-76721620D01*
X133178842Y-76721620D01*
X133021158Y-76721620D01*
X133021155Y-76721620D01*
X132866510Y-76752381D01*
X132866498Y-76752384D01*
X132720827Y-76812722D01*
X132720814Y-76812729D01*
X132589711Y-76900330D01*
X132589707Y-76900333D01*
X132478213Y-77011827D01*
X132478210Y-77011831D01*
X132390609Y-77142934D01*
X132390602Y-77142947D01*
X132330264Y-77288618D01*
X132330261Y-77288630D01*
X132299500Y-77443273D01*
X117350670Y-77443273D01*
X117412877Y-76990683D01*
X117413514Y-76986573D01*
X117597076Y-75921938D01*
X117597866Y-75917785D01*
X117636455Y-75732085D01*
X117817657Y-74860090D01*
X117818574Y-74856022D01*
X117973288Y-74221153D01*
X124899500Y-74221153D01*
X124899500Y-74378846D01*
X124930261Y-74533489D01*
X124930264Y-74533501D01*
X124990602Y-74679172D01*
X124990609Y-74679185D01*
X125078210Y-74810288D01*
X125078213Y-74810292D01*
X125189707Y-74921786D01*
X125189711Y-74921789D01*
X125320814Y-75009390D01*
X125320827Y-75009397D01*
X125466498Y-75069735D01*
X125466503Y-75069737D01*
X125621153Y-75100499D01*
X125621156Y-75100500D01*
X125621158Y-75100500D01*
X125778844Y-75100500D01*
X125778845Y-75100499D01*
X125933497Y-75069737D01*
X126079179Y-75009394D01*
X126210289Y-74921789D01*
X126321789Y-74810289D01*
X126409394Y-74679179D01*
X126469737Y-74533497D01*
X126500500Y-74378842D01*
X126500500Y-74221158D01*
X126500500Y-74221155D01*
X126500499Y-74221153D01*
X126480326Y-74119737D01*
X126469737Y-74066503D01*
X126442398Y-74000500D01*
X126409397Y-73920827D01*
X126409390Y-73920814D01*
X126321789Y-73789711D01*
X126321786Y-73789707D01*
X126210292Y-73678213D01*
X126210288Y-73678210D01*
X126079185Y-73590609D01*
X126079172Y-73590602D01*
X125933501Y-73530264D01*
X125933489Y-73530261D01*
X125778845Y-73499500D01*
X125778842Y-73499500D01*
X125621158Y-73499500D01*
X125621155Y-73499500D01*
X125466510Y-73530261D01*
X125466498Y-73530264D01*
X125320827Y-73590602D01*
X125320814Y-73590609D01*
X125189711Y-73678210D01*
X125189707Y-73678213D01*
X125078213Y-73789707D01*
X125078210Y-73789711D01*
X124990609Y-73920814D01*
X124990602Y-73920827D01*
X124930264Y-74066498D01*
X124930261Y-74066510D01*
X124899500Y-74221153D01*
X117973288Y-74221153D01*
X118074367Y-73806372D01*
X118075408Y-73802395D01*
X118366894Y-72762072D01*
X118368100Y-72758036D01*
X118411545Y-72621153D01*
X132799500Y-72621153D01*
X132799500Y-72778846D01*
X132830261Y-72933489D01*
X132830264Y-72933501D01*
X132890602Y-73079172D01*
X132890609Y-73079185D01*
X132978210Y-73210288D01*
X132978213Y-73210292D01*
X133089707Y-73321786D01*
X133089711Y-73321789D01*
X133220814Y-73409390D01*
X133220827Y-73409397D01*
X133366498Y-73469735D01*
X133366503Y-73469737D01*
X133516131Y-73499500D01*
X133521153Y-73500499D01*
X133521156Y-73500500D01*
X133521158Y-73500500D01*
X133678844Y-73500500D01*
X133678845Y-73500499D01*
X133833497Y-73469737D01*
X133979179Y-73409394D01*
X134110289Y-73321789D01*
X134221789Y-73210289D01*
X134281348Y-73121153D01*
X142949500Y-73121153D01*
X142949500Y-73278846D01*
X142980261Y-73433489D01*
X142980264Y-73433501D01*
X143040602Y-73579172D01*
X143040609Y-73579185D01*
X143128210Y-73710288D01*
X143128213Y-73710292D01*
X143239707Y-73821786D01*
X143239711Y-73821789D01*
X143370814Y-73909390D01*
X143370827Y-73909397D01*
X143516498Y-73969735D01*
X143516503Y-73969737D01*
X143671153Y-74000499D01*
X143671156Y-74000500D01*
X143671158Y-74000500D01*
X143828844Y-74000500D01*
X143828845Y-74000499D01*
X143983497Y-73969737D01*
X144101592Y-73920821D01*
X144129172Y-73909397D01*
X144129172Y-73909396D01*
X144129179Y-73909394D01*
X144260289Y-73821789D01*
X144371789Y-73710289D01*
X144404017Y-73662055D01*
X144457629Y-73617250D01*
X144526954Y-73608541D01*
X144589981Y-73638695D01*
X144621681Y-73683491D01*
X144632518Y-73709654D01*
X144640603Y-73729172D01*
X144640606Y-73729178D01*
X144640609Y-73729185D01*
X144728210Y-73860288D01*
X144728213Y-73860292D01*
X144839707Y-73971786D01*
X144839711Y-73971789D01*
X144970814Y-74059390D01*
X144970827Y-74059397D01*
X145044013Y-74089711D01*
X145116503Y-74119737D01*
X145266131Y-74149500D01*
X145271153Y-74150499D01*
X145271156Y-74150500D01*
X145271158Y-74150500D01*
X145428844Y-74150500D01*
X145428845Y-74150499D01*
X145583497Y-74119737D01*
X145729179Y-74059394D01*
X145860289Y-73971789D01*
X145971789Y-73860289D01*
X146059394Y-73729179D01*
X146119737Y-73583497D01*
X146150500Y-73428842D01*
X146150500Y-73271158D01*
X146150500Y-73271155D01*
X146150499Y-73271153D01*
X150649500Y-73271153D01*
X150649500Y-73428846D01*
X150680261Y-73583489D01*
X150680264Y-73583501D01*
X150740602Y-73729172D01*
X150740609Y-73729185D01*
X150828210Y-73860288D01*
X150828213Y-73860292D01*
X150939707Y-73971786D01*
X150939711Y-73971789D01*
X151070814Y-74059390D01*
X151070827Y-74059397D01*
X151144013Y-74089711D01*
X151216503Y-74119737D01*
X151366131Y-74149500D01*
X151371153Y-74150499D01*
X151371156Y-74150500D01*
X151371158Y-74150500D01*
X151528844Y-74150500D01*
X151528845Y-74150499D01*
X151683497Y-74119737D01*
X151829179Y-74059394D01*
X151960289Y-73971789D01*
X152071789Y-73860289D01*
X152159394Y-73729179D01*
X152219737Y-73583497D01*
X152250500Y-73428842D01*
X152250500Y-73271158D01*
X152250500Y-73271155D01*
X152250499Y-73271153D01*
X152219738Y-73116510D01*
X152219737Y-73116503D01*
X152219735Y-73116498D01*
X152159397Y-72970827D01*
X152159390Y-72970814D01*
X152071789Y-72839711D01*
X152071786Y-72839707D01*
X151960292Y-72728213D01*
X151960288Y-72728210D01*
X151829185Y-72640609D01*
X151829172Y-72640602D01*
X151683501Y-72580264D01*
X151683489Y-72580261D01*
X151528845Y-72549500D01*
X151528842Y-72549500D01*
X151371158Y-72549500D01*
X151371155Y-72549500D01*
X151216510Y-72580261D01*
X151216498Y-72580264D01*
X151070827Y-72640602D01*
X151070814Y-72640609D01*
X150939711Y-72728210D01*
X150939707Y-72728213D01*
X150828213Y-72839707D01*
X150828210Y-72839711D01*
X150740609Y-72970814D01*
X150740602Y-72970827D01*
X150680264Y-73116498D01*
X150680261Y-73116510D01*
X150649500Y-73271153D01*
X146150499Y-73271153D01*
X146119738Y-73116510D01*
X146119737Y-73116503D01*
X146119735Y-73116498D01*
X146059397Y-72970827D01*
X146059390Y-72970814D01*
X145971789Y-72839711D01*
X145971786Y-72839707D01*
X145860292Y-72728213D01*
X145860288Y-72728210D01*
X145729185Y-72640609D01*
X145729172Y-72640602D01*
X145583501Y-72580264D01*
X145583489Y-72580261D01*
X145428845Y-72549500D01*
X145428842Y-72549500D01*
X145271158Y-72549500D01*
X145271155Y-72549500D01*
X145116510Y-72580261D01*
X145116498Y-72580264D01*
X144970827Y-72640602D01*
X144970814Y-72640609D01*
X144839711Y-72728210D01*
X144839707Y-72728213D01*
X144728213Y-72839707D01*
X144695981Y-72887946D01*
X144642368Y-72932750D01*
X144573043Y-72941457D01*
X144510016Y-72911302D01*
X144478318Y-72866507D01*
X144459395Y-72820824D01*
X144459394Y-72820821D01*
X144459392Y-72820818D01*
X144459390Y-72820814D01*
X144371789Y-72689711D01*
X144371786Y-72689707D01*
X144260292Y-72578213D01*
X144260288Y-72578210D01*
X144129185Y-72490609D01*
X144129172Y-72490602D01*
X143983501Y-72430264D01*
X143983489Y-72430261D01*
X143828845Y-72399500D01*
X143828842Y-72399500D01*
X143671158Y-72399500D01*
X143671155Y-72399500D01*
X143516510Y-72430261D01*
X143516498Y-72430264D01*
X143370827Y-72490602D01*
X143370814Y-72490609D01*
X143239711Y-72578210D01*
X143239707Y-72578213D01*
X143128213Y-72689707D01*
X143128210Y-72689711D01*
X143040609Y-72820814D01*
X143040602Y-72820827D01*
X142980264Y-72966498D01*
X142980261Y-72966510D01*
X142949500Y-73121153D01*
X134281348Y-73121153D01*
X134309394Y-73079179D01*
X134369737Y-72933497D01*
X134400500Y-72778842D01*
X134400500Y-72621158D01*
X134400500Y-72621155D01*
X134400499Y-72621153D01*
X134391957Y-72578210D01*
X134369737Y-72466503D01*
X134364060Y-72452797D01*
X134309397Y-72320827D01*
X134309390Y-72320814D01*
X134221789Y-72189711D01*
X134221786Y-72189707D01*
X134110292Y-72078213D01*
X134110288Y-72078210D01*
X133979185Y-71990609D01*
X133979172Y-71990602D01*
X133833501Y-71930264D01*
X133833489Y-71930261D01*
X133678845Y-71899500D01*
X133678842Y-71899500D01*
X133521158Y-71899500D01*
X133521155Y-71899500D01*
X133366510Y-71930261D01*
X133366498Y-71930264D01*
X133220827Y-71990602D01*
X133220814Y-71990609D01*
X133089711Y-72078210D01*
X133089707Y-72078213D01*
X132978213Y-72189707D01*
X132978210Y-72189711D01*
X132890609Y-72320814D01*
X132890602Y-72320827D01*
X132830264Y-72466498D01*
X132830261Y-72466510D01*
X132799500Y-72621153D01*
X118411545Y-72621153D01*
X118694914Y-71728330D01*
X118696241Y-71724384D01*
X119058026Y-70706418D01*
X119059490Y-70702513D01*
X119081301Y-70647204D01*
X119091574Y-70621153D01*
X128199500Y-70621153D01*
X128199500Y-70778846D01*
X128230261Y-70933489D01*
X128230264Y-70933501D01*
X128290602Y-71079172D01*
X128290609Y-71079185D01*
X128378210Y-71210288D01*
X128378213Y-71210292D01*
X128489707Y-71321786D01*
X128489711Y-71321789D01*
X128620814Y-71409390D01*
X128620827Y-71409397D01*
X128766498Y-71469735D01*
X128766503Y-71469737D01*
X128921153Y-71500499D01*
X128921156Y-71500500D01*
X128921158Y-71500500D01*
X129078844Y-71500500D01*
X129078845Y-71500499D01*
X129233497Y-71469737D01*
X129379179Y-71409394D01*
X129510289Y-71321789D01*
X129621789Y-71210289D01*
X129709394Y-71079179D01*
X129769737Y-70933497D01*
X129773409Y-70915032D01*
X129805794Y-70853123D01*
X129866509Y-70818548D01*
X129936279Y-70822287D01*
X129992951Y-70863153D01*
X130016644Y-70915033D01*
X130030261Y-70983489D01*
X130030264Y-70983501D01*
X130090602Y-71129172D01*
X130090609Y-71129185D01*
X130178210Y-71260288D01*
X130178213Y-71260292D01*
X130289707Y-71371786D01*
X130289711Y-71371789D01*
X130420814Y-71459390D01*
X130420827Y-71459397D01*
X130520060Y-71500500D01*
X130566503Y-71519737D01*
X130721153Y-71550499D01*
X130721156Y-71550500D01*
X130721158Y-71550500D01*
X130878844Y-71550500D01*
X130878845Y-71550499D01*
X131033497Y-71519737D01*
X131179179Y-71459394D01*
X131310289Y-71371789D01*
X131421789Y-71260289D01*
X131509394Y-71129179D01*
X131569737Y-70983497D01*
X131600500Y-70828842D01*
X131600500Y-70749983D01*
X166399500Y-70749983D01*
X166399500Y-72350001D01*
X166399501Y-72350018D01*
X166410000Y-72452796D01*
X166410001Y-72452799D01*
X166465185Y-72619331D01*
X166465187Y-72619336D01*
X166478308Y-72640609D01*
X166557288Y-72768656D01*
X166681344Y-72892712D01*
X166830666Y-72984814D01*
X166997203Y-73039999D01*
X167099991Y-73050500D01*
X168700008Y-73050499D01*
X168802797Y-73039999D01*
X168969334Y-72984814D01*
X169118656Y-72892712D01*
X169242712Y-72768656D01*
X169334814Y-72619334D01*
X169389999Y-72452797D01*
X169400500Y-72350009D01*
X169400499Y-70749992D01*
X169389999Y-70647203D01*
X169334814Y-70480666D01*
X169242712Y-70331344D01*
X169118656Y-70207288D01*
X168990451Y-70128211D01*
X168969336Y-70115187D01*
X168969331Y-70115185D01*
X168967862Y-70114698D01*
X168802797Y-70060001D01*
X168802795Y-70060000D01*
X168700010Y-70049500D01*
X167099998Y-70049500D01*
X167099981Y-70049501D01*
X166997203Y-70060000D01*
X166997200Y-70060001D01*
X166830668Y-70115185D01*
X166830663Y-70115187D01*
X166681342Y-70207289D01*
X166557289Y-70331342D01*
X166465187Y-70480663D01*
X166465186Y-70480666D01*
X166410001Y-70647203D01*
X166410001Y-70647204D01*
X166410000Y-70647204D01*
X166399500Y-70749983D01*
X131600500Y-70749983D01*
X131600500Y-70671158D01*
X131600500Y-70671155D01*
X131600499Y-70671153D01*
X131569738Y-70516510D01*
X131569737Y-70516503D01*
X131554892Y-70480663D01*
X131509397Y-70370827D01*
X131509390Y-70370814D01*
X131421789Y-70239711D01*
X131421786Y-70239707D01*
X131310292Y-70128213D01*
X131310288Y-70128210D01*
X131179185Y-70040609D01*
X131179172Y-70040602D01*
X131033501Y-69980264D01*
X131033491Y-69980261D01*
X130998042Y-69973210D01*
X130936131Y-69940825D01*
X130901557Y-69880109D01*
X130900115Y-69871456D01*
X130893835Y-69839886D01*
X130866392Y-69701918D01*
X130802279Y-69547137D01*
X130771113Y-69500494D01*
X130709202Y-69407837D01*
X130590738Y-69289373D01*
X130451436Y-69196295D01*
X130296658Y-69132184D01*
X130296650Y-69132182D01*
X130132347Y-69099500D01*
X130132343Y-69099500D01*
X129964809Y-69099500D01*
X129964804Y-69099500D01*
X129800501Y-69132182D01*
X129800493Y-69132184D01*
X129645715Y-69196295D01*
X129506413Y-69289373D01*
X129387949Y-69407837D01*
X129294871Y-69547139D01*
X129230760Y-69701917D01*
X129230758Y-69701923D01*
X129211219Y-69800151D01*
X129178834Y-69862062D01*
X129118118Y-69896636D01*
X129084934Y-69898862D01*
X129084934Y-69899500D01*
X128921155Y-69899500D01*
X128766510Y-69930261D01*
X128766498Y-69930264D01*
X128620827Y-69990602D01*
X128620814Y-69990609D01*
X128489711Y-70078210D01*
X128489707Y-70078213D01*
X128378213Y-70189707D01*
X128378210Y-70189711D01*
X128290609Y-70320814D01*
X128290602Y-70320827D01*
X128230264Y-70466498D01*
X128230261Y-70466510D01*
X128199500Y-70621153D01*
X119091574Y-70621153D01*
X119455820Y-69697489D01*
X119457432Y-69693600D01*
X119581557Y-69407837D01*
X119887816Y-68702754D01*
X119889565Y-68698911D01*
X120069219Y-68321153D01*
X155499500Y-68321153D01*
X155499500Y-68478846D01*
X155530261Y-68633489D01*
X155530264Y-68633501D01*
X155590602Y-68779172D01*
X155590609Y-68779185D01*
X155678210Y-68910288D01*
X155678213Y-68910292D01*
X155789707Y-69021786D01*
X155789711Y-69021789D01*
X155920814Y-69109390D01*
X155920827Y-69109397D01*
X155975841Y-69132184D01*
X156066503Y-69169737D01*
X156221153Y-69200499D01*
X156221156Y-69200500D01*
X156221158Y-69200500D01*
X156378844Y-69200500D01*
X156378845Y-69200499D01*
X156533497Y-69169737D01*
X156679179Y-69109394D01*
X156810289Y-69021789D01*
X156921789Y-68910289D01*
X157009394Y-68779179D01*
X157069737Y-68633497D01*
X157100500Y-68478842D01*
X157100500Y-68471153D01*
X157499500Y-68471153D01*
X157499500Y-68628846D01*
X157530261Y-68783489D01*
X157530264Y-68783501D01*
X157590602Y-68929172D01*
X157590609Y-68929185D01*
X157678210Y-69060288D01*
X157678213Y-69060292D01*
X157789707Y-69171786D01*
X157789711Y-69171789D01*
X157920814Y-69259390D01*
X157920827Y-69259397D01*
X158066498Y-69319735D01*
X158066503Y-69319737D01*
X158221153Y-69350499D01*
X158221156Y-69350500D01*
X158221158Y-69350500D01*
X158378844Y-69350500D01*
X158378845Y-69350499D01*
X158533497Y-69319737D01*
X158679179Y-69259394D01*
X158810289Y-69171789D01*
X158921789Y-69060289D01*
X159009394Y-68929179D01*
X159069737Y-68783497D01*
X159096192Y-68650500D01*
X159101689Y-68622868D01*
X159103562Y-68623240D01*
X159126385Y-68566681D01*
X159183409Y-68526308D01*
X159253208Y-68523173D01*
X159292537Y-68540496D01*
X159320814Y-68559390D01*
X159320827Y-68559397D01*
X159466498Y-68619735D01*
X159466503Y-68619737D01*
X159621153Y-68650499D01*
X159621156Y-68650500D01*
X159621158Y-68650500D01*
X159778844Y-68650500D01*
X159778845Y-68650499D01*
X159933497Y-68619737D01*
X160046166Y-68573067D01*
X160079172Y-68559397D01*
X160079172Y-68559396D01*
X160079179Y-68559394D01*
X160210289Y-68471789D01*
X160321789Y-68360289D01*
X160409394Y-68229179D01*
X160469737Y-68083497D01*
X160500500Y-67928842D01*
X160500500Y-67771158D01*
X160500500Y-67771155D01*
X160500499Y-67771153D01*
X160490236Y-67719557D01*
X160469737Y-67616503D01*
X160442398Y-67550500D01*
X160409397Y-67470827D01*
X160409390Y-67470814D01*
X160321789Y-67339711D01*
X160321786Y-67339707D01*
X160210292Y-67228213D01*
X160210288Y-67228210D01*
X160079185Y-67140609D01*
X160079172Y-67140602D01*
X159933501Y-67080264D01*
X159933489Y-67080261D01*
X159778845Y-67049500D01*
X159778842Y-67049500D01*
X159621158Y-67049500D01*
X159621155Y-67049500D01*
X159466510Y-67080261D01*
X159466498Y-67080264D01*
X159320827Y-67140602D01*
X159320814Y-67140609D01*
X159189711Y-67228210D01*
X159189707Y-67228213D01*
X159078213Y-67339707D01*
X159078210Y-67339711D01*
X158990609Y-67470814D01*
X158990602Y-67470827D01*
X158930264Y-67616498D01*
X158930261Y-67616510D01*
X158898311Y-67777132D01*
X158896444Y-67776760D01*
X158873590Y-67833348D01*
X158816553Y-67873704D01*
X158746753Y-67876816D01*
X158707463Y-67859504D01*
X158679183Y-67840608D01*
X158679172Y-67840602D01*
X158533501Y-67780264D01*
X158533489Y-67780261D01*
X158378845Y-67749500D01*
X158378842Y-67749500D01*
X158221158Y-67749500D01*
X158221155Y-67749500D01*
X158066510Y-67780261D01*
X158066498Y-67780264D01*
X157920827Y-67840602D01*
X157920814Y-67840609D01*
X157789711Y-67928210D01*
X157789707Y-67928213D01*
X157678213Y-68039707D01*
X157678210Y-68039711D01*
X157590609Y-68170814D01*
X157590602Y-68170827D01*
X157530264Y-68316498D01*
X157530261Y-68316510D01*
X157499500Y-68471153D01*
X157100500Y-68471153D01*
X157100500Y-68321158D01*
X157100500Y-68321155D01*
X157100499Y-68321153D01*
X157082204Y-68229179D01*
X157069737Y-68166503D01*
X157035352Y-68083489D01*
X157009397Y-68020827D01*
X157009390Y-68020814D01*
X156921789Y-67889711D01*
X156921786Y-67889707D01*
X156810292Y-67778213D01*
X156810288Y-67778210D01*
X156679185Y-67690609D01*
X156679172Y-67690602D01*
X156533501Y-67630264D01*
X156533489Y-67630261D01*
X156378845Y-67599500D01*
X156378842Y-67599500D01*
X156221158Y-67599500D01*
X156221155Y-67599500D01*
X156066510Y-67630261D01*
X156066498Y-67630264D01*
X155920827Y-67690602D01*
X155920814Y-67690609D01*
X155789711Y-67778210D01*
X155789707Y-67778213D01*
X155678213Y-67889707D01*
X155678210Y-67889711D01*
X155590609Y-68020814D01*
X155590602Y-68020827D01*
X155530264Y-68166498D01*
X155530261Y-68166510D01*
X155499500Y-68321153D01*
X120069219Y-68321153D01*
X120353544Y-67723304D01*
X120355383Y-67719601D01*
X120852429Y-66760345D01*
X120854400Y-66756694D01*
X120902497Y-66671153D01*
X130549500Y-66671153D01*
X130549500Y-66828846D01*
X130580261Y-66983489D01*
X130580264Y-66983501D01*
X130640602Y-67129172D01*
X130640609Y-67129185D01*
X130728210Y-67260288D01*
X130728213Y-67260292D01*
X130839707Y-67371786D01*
X130839711Y-67371789D01*
X130970814Y-67459390D01*
X130970827Y-67459397D01*
X131116498Y-67519735D01*
X131116503Y-67519737D01*
X131271153Y-67550499D01*
X131271156Y-67550500D01*
X131271158Y-67550500D01*
X131428844Y-67550500D01*
X131428845Y-67550499D01*
X131583497Y-67519737D01*
X131701592Y-67470821D01*
X131729172Y-67459397D01*
X131729172Y-67459396D01*
X131729179Y-67459394D01*
X131860289Y-67371789D01*
X131971789Y-67260289D01*
X132059394Y-67129179D01*
X132119737Y-66983497D01*
X132150500Y-66828842D01*
X132150500Y-66671158D01*
X132150500Y-66671155D01*
X132150499Y-66671153D01*
X132119738Y-66516510D01*
X132119737Y-66516503D01*
X132083427Y-66428842D01*
X132059397Y-66370827D01*
X132059390Y-66370814D01*
X132034763Y-66333957D01*
X131992798Y-66271153D01*
X168799500Y-66271153D01*
X168799500Y-66428846D01*
X168830261Y-66583489D01*
X168830264Y-66583501D01*
X168890602Y-66729172D01*
X168890609Y-66729185D01*
X168978210Y-66860288D01*
X168978213Y-66860292D01*
X169089707Y-66971786D01*
X169089711Y-66971789D01*
X169220814Y-67059390D01*
X169220827Y-67059397D01*
X169366498Y-67119735D01*
X169366503Y-67119737D01*
X169521153Y-67150499D01*
X169521156Y-67150500D01*
X169521158Y-67150500D01*
X169678844Y-67150500D01*
X169678845Y-67150499D01*
X169833497Y-67119737D01*
X169979179Y-67059394D01*
X170110289Y-66971789D01*
X170221789Y-66860289D01*
X170309394Y-66729179D01*
X170369737Y-66583497D01*
X170400500Y-66428842D01*
X170400500Y-66271158D01*
X170400500Y-66271155D01*
X170400499Y-66271153D01*
X170372066Y-66128211D01*
X170369737Y-66116503D01*
X170338298Y-66040602D01*
X170309397Y-65970827D01*
X170309390Y-65970814D01*
X170221789Y-65839711D01*
X170221786Y-65839707D01*
X170110292Y-65728213D01*
X170110288Y-65728210D01*
X169979185Y-65640609D01*
X169979172Y-65640602D01*
X169833501Y-65580264D01*
X169833489Y-65580261D01*
X169678845Y-65549500D01*
X169678842Y-65549500D01*
X169521158Y-65549500D01*
X169521155Y-65549500D01*
X169366510Y-65580261D01*
X169366498Y-65580264D01*
X169220827Y-65640602D01*
X169220814Y-65640609D01*
X169089711Y-65728210D01*
X169089707Y-65728213D01*
X168978213Y-65839707D01*
X168978210Y-65839711D01*
X168890609Y-65970814D01*
X168890602Y-65970827D01*
X168830264Y-66116498D01*
X168830261Y-66116510D01*
X168799500Y-66271153D01*
X131992798Y-66271153D01*
X131971789Y-66239711D01*
X131971786Y-66239707D01*
X131860292Y-66128213D01*
X131860288Y-66128210D01*
X131729185Y-66040609D01*
X131729172Y-66040602D01*
X131583501Y-65980264D01*
X131583489Y-65980261D01*
X131428845Y-65949500D01*
X131428842Y-65949500D01*
X131271158Y-65949500D01*
X131271155Y-65949500D01*
X131116510Y-65980261D01*
X131116498Y-65980264D01*
X130970827Y-66040602D01*
X130970814Y-66040609D01*
X130839711Y-66128210D01*
X130839707Y-66128213D01*
X130728213Y-66239707D01*
X130728210Y-66239711D01*
X130640609Y-66370814D01*
X130640602Y-66370827D01*
X130580264Y-66516498D01*
X130580261Y-66516510D01*
X130549500Y-66671153D01*
X120902497Y-66671153D01*
X121383896Y-65814987D01*
X121386025Y-65811349D01*
X121436581Y-65728213D01*
X121947317Y-64888343D01*
X121949567Y-64884781D01*
X122542093Y-63981402D01*
X122544429Y-63977971D01*
X123167445Y-63095358D01*
X123169878Y-63092033D01*
X123822678Y-62231186D01*
X123825281Y-62227874D01*
X123845350Y-62203207D01*
X124507054Y-61389863D01*
X124509725Y-61386690D01*
X124566870Y-61321153D01*
X133749500Y-61321153D01*
X133749500Y-61478846D01*
X133780261Y-61633489D01*
X133780264Y-61633501D01*
X133840602Y-61779172D01*
X133840609Y-61779185D01*
X133928210Y-61910288D01*
X133928213Y-61910292D01*
X134039707Y-62021786D01*
X134039711Y-62021789D01*
X134170814Y-62109390D01*
X134170827Y-62109397D01*
X134270007Y-62150478D01*
X134316503Y-62169737D01*
X134471153Y-62200499D01*
X134471156Y-62200500D01*
X134471158Y-62200500D01*
X134628844Y-62200500D01*
X134628845Y-62200499D01*
X134783497Y-62169737D01*
X134929179Y-62109394D01*
X135060289Y-62021789D01*
X135171789Y-61910289D01*
X135259394Y-61779179D01*
X135260183Y-61777273D01*
X144307000Y-61777273D01*
X144307000Y-61882727D01*
X144334293Y-61984587D01*
X144387020Y-62075913D01*
X144461587Y-62150480D01*
X144552913Y-62203207D01*
X144654773Y-62230500D01*
X144654775Y-62230500D01*
X144760225Y-62230500D01*
X144760227Y-62230500D01*
X144862087Y-62203207D01*
X144953413Y-62150480D01*
X145027980Y-62075913D01*
X145080707Y-61984587D01*
X145108000Y-61882727D01*
X145108000Y-61777273D01*
X145832000Y-61777273D01*
X145832000Y-61882727D01*
X145859293Y-61984587D01*
X145912020Y-62075913D01*
X145986587Y-62150480D01*
X146077913Y-62203207D01*
X146179773Y-62230500D01*
X146179775Y-62230500D01*
X146285225Y-62230500D01*
X146285227Y-62230500D01*
X146387087Y-62203207D01*
X146478413Y-62150480D01*
X146552980Y-62075913D01*
X146605707Y-61984587D01*
X146633000Y-61882727D01*
X146633000Y-61777273D01*
X146605707Y-61675413D01*
X146552980Y-61584087D01*
X146478413Y-61509520D01*
X146387087Y-61456793D01*
X146285227Y-61429500D01*
X146179773Y-61429500D01*
X146077913Y-61456793D01*
X146077910Y-61456794D01*
X145986585Y-61509521D01*
X145912021Y-61584085D01*
X145859294Y-61675410D01*
X145859293Y-61675413D01*
X145832000Y-61777273D01*
X145108000Y-61777273D01*
X145080707Y-61675413D01*
X145027980Y-61584087D01*
X144953413Y-61509520D01*
X144862087Y-61456793D01*
X144760227Y-61429500D01*
X144654773Y-61429500D01*
X144552913Y-61456793D01*
X144552910Y-61456794D01*
X144461585Y-61509521D01*
X144387021Y-61584085D01*
X144334294Y-61675410D01*
X144334293Y-61675413D01*
X144307000Y-61777273D01*
X135260183Y-61777273D01*
X135319737Y-61633497D01*
X135350500Y-61478842D01*
X135350500Y-61321158D01*
X135350500Y-61321155D01*
X135350499Y-61321153D01*
X135319738Y-61166510D01*
X135319737Y-61166503D01*
X135273178Y-61054098D01*
X135259397Y-61020826D01*
X135259390Y-61020814D01*
X135255353Y-61014773D01*
X143544500Y-61014773D01*
X143544500Y-61120227D01*
X143571793Y-61222087D01*
X143624520Y-61313413D01*
X143699087Y-61387980D01*
X143790413Y-61440707D01*
X143892273Y-61468000D01*
X143892275Y-61468000D01*
X143997725Y-61468000D01*
X143997727Y-61468000D01*
X144099587Y-61440707D01*
X144190913Y-61387980D01*
X144265480Y-61313413D01*
X144318207Y-61222087D01*
X144345500Y-61120227D01*
X144345500Y-61014773D01*
X145069500Y-61014773D01*
X145069500Y-61120227D01*
X145096793Y-61222087D01*
X145149520Y-61313413D01*
X145224087Y-61387980D01*
X145315413Y-61440707D01*
X145417273Y-61468000D01*
X145417275Y-61468000D01*
X145522725Y-61468000D01*
X145522727Y-61468000D01*
X145624587Y-61440707D01*
X145715913Y-61387980D01*
X145790480Y-61313413D01*
X145843207Y-61222087D01*
X145870500Y-61120227D01*
X145870500Y-61014773D01*
X146594500Y-61014773D01*
X146594500Y-61120227D01*
X146621793Y-61222087D01*
X146674520Y-61313413D01*
X146749087Y-61387980D01*
X146840413Y-61440707D01*
X146942273Y-61468000D01*
X146942275Y-61468000D01*
X147047725Y-61468000D01*
X147047727Y-61468000D01*
X147149587Y-61440707D01*
X147240913Y-61387980D01*
X147315480Y-61313413D01*
X147368207Y-61222087D01*
X147395500Y-61120227D01*
X147395500Y-61014773D01*
X147368207Y-60912913D01*
X147315480Y-60821587D01*
X147240913Y-60747020D01*
X147149587Y-60694293D01*
X147047727Y-60667000D01*
X146942273Y-60667000D01*
X146840413Y-60694293D01*
X146840410Y-60694294D01*
X146749085Y-60747021D01*
X146674521Y-60821585D01*
X146621794Y-60912910D01*
X146621793Y-60912913D01*
X146594500Y-61014773D01*
X145870500Y-61014773D01*
X145843207Y-60912913D01*
X145790480Y-60821587D01*
X145715913Y-60747020D01*
X145624587Y-60694293D01*
X145522727Y-60667000D01*
X145417273Y-60667000D01*
X145315413Y-60694293D01*
X145315410Y-60694294D01*
X145224085Y-60747021D01*
X145149521Y-60821585D01*
X145096794Y-60912910D01*
X145096793Y-60912913D01*
X145069500Y-61014773D01*
X144345500Y-61014773D01*
X144318207Y-60912913D01*
X144265480Y-60821587D01*
X144190913Y-60747020D01*
X144099587Y-60694293D01*
X143997727Y-60667000D01*
X143892273Y-60667000D01*
X143790413Y-60694293D01*
X143790410Y-60694294D01*
X143699085Y-60747021D01*
X143624521Y-60821585D01*
X143571794Y-60912910D01*
X143571793Y-60912913D01*
X143544500Y-61014773D01*
X135255353Y-61014773D01*
X135171789Y-60889711D01*
X135171786Y-60889707D01*
X135060292Y-60778213D01*
X135060288Y-60778210D01*
X134929185Y-60690609D01*
X134929172Y-60690602D01*
X134783501Y-60630264D01*
X134783489Y-60630261D01*
X134628845Y-60599500D01*
X134628842Y-60599500D01*
X134471158Y-60599500D01*
X134471155Y-60599500D01*
X134316510Y-60630261D01*
X134316498Y-60630264D01*
X134170827Y-60690602D01*
X134170814Y-60690609D01*
X134039711Y-60778210D01*
X134039707Y-60778213D01*
X133928213Y-60889707D01*
X133928210Y-60889711D01*
X133840609Y-61020814D01*
X133840602Y-61020827D01*
X133780264Y-61166498D01*
X133780261Y-61166510D01*
X133749500Y-61321153D01*
X124566870Y-61321153D01*
X125219712Y-60572444D01*
X125222543Y-60569306D01*
X125325014Y-60459587D01*
X125518631Y-60252273D01*
X144307000Y-60252273D01*
X144307000Y-60357727D01*
X144334293Y-60459587D01*
X144387020Y-60550913D01*
X144461587Y-60625480D01*
X144552913Y-60678207D01*
X144654773Y-60705500D01*
X144654775Y-60705500D01*
X144760225Y-60705500D01*
X144760227Y-60705500D01*
X144862087Y-60678207D01*
X144953413Y-60625480D01*
X145027980Y-60550913D01*
X145080707Y-60459587D01*
X145108000Y-60357727D01*
X145108000Y-60252273D01*
X145832000Y-60252273D01*
X145832000Y-60357727D01*
X145859293Y-60459587D01*
X145912020Y-60550913D01*
X145986587Y-60625480D01*
X146077913Y-60678207D01*
X146179773Y-60705500D01*
X146179775Y-60705500D01*
X146285225Y-60705500D01*
X146285227Y-60705500D01*
X146387087Y-60678207D01*
X146478413Y-60625480D01*
X146552980Y-60550913D01*
X146605707Y-60459587D01*
X146633000Y-60357727D01*
X146633000Y-60252273D01*
X146605707Y-60150413D01*
X146552980Y-60059087D01*
X146478413Y-59984520D01*
X146387087Y-59931793D01*
X146285227Y-59904500D01*
X146179773Y-59904500D01*
X146077913Y-59931793D01*
X146077910Y-59931794D01*
X145986585Y-59984521D01*
X145912021Y-60059085D01*
X145859294Y-60150410D01*
X145859293Y-60150413D01*
X145832000Y-60252273D01*
X145108000Y-60252273D01*
X145080707Y-60150413D01*
X145027980Y-60059087D01*
X144953413Y-59984520D01*
X144862087Y-59931793D01*
X144760227Y-59904500D01*
X144654773Y-59904500D01*
X144552913Y-59931793D01*
X144552910Y-59931794D01*
X144461585Y-59984521D01*
X144387021Y-60059085D01*
X144334294Y-60150410D01*
X144334293Y-60150413D01*
X144307000Y-60252273D01*
X125518631Y-60252273D01*
X125959958Y-59779727D01*
X125962844Y-59776742D01*
X126249813Y-59489773D01*
X143544500Y-59489773D01*
X143544500Y-59595227D01*
X143571793Y-59697087D01*
X143624520Y-59788413D01*
X143699087Y-59862980D01*
X143790413Y-59915707D01*
X143892273Y-59943000D01*
X143892275Y-59943000D01*
X143997725Y-59943000D01*
X143997727Y-59943000D01*
X144099587Y-59915707D01*
X144190913Y-59862980D01*
X144265480Y-59788413D01*
X144318207Y-59697087D01*
X144345500Y-59595227D01*
X144345500Y-59489773D01*
X145069500Y-59489773D01*
X145069500Y-59595227D01*
X145096793Y-59697087D01*
X145149520Y-59788413D01*
X145224087Y-59862980D01*
X145315413Y-59915707D01*
X145417273Y-59943000D01*
X145417275Y-59943000D01*
X145522725Y-59943000D01*
X145522727Y-59943000D01*
X145624587Y-59915707D01*
X145715913Y-59862980D01*
X145790480Y-59788413D01*
X145843207Y-59697087D01*
X145870500Y-59595227D01*
X145870500Y-59489773D01*
X146594500Y-59489773D01*
X146594500Y-59595227D01*
X146621793Y-59697087D01*
X146674520Y-59788413D01*
X146749087Y-59862980D01*
X146840413Y-59915707D01*
X146942273Y-59943000D01*
X146942275Y-59943000D01*
X147047725Y-59943000D01*
X147047727Y-59943000D01*
X147149587Y-59915707D01*
X147240913Y-59862980D01*
X147315480Y-59788413D01*
X147368207Y-59697087D01*
X147395500Y-59595227D01*
X147395500Y-59489773D01*
X147368207Y-59387913D01*
X147315480Y-59296587D01*
X147240913Y-59222020D01*
X147149587Y-59169293D01*
X147047727Y-59142000D01*
X146942273Y-59142000D01*
X146840413Y-59169293D01*
X146840410Y-59169294D01*
X146749085Y-59222021D01*
X146674521Y-59296585D01*
X146621794Y-59387910D01*
X146621793Y-59387913D01*
X146594500Y-59489773D01*
X145870500Y-59489773D01*
X145843207Y-59387913D01*
X145790480Y-59296587D01*
X145715913Y-59222020D01*
X145624587Y-59169293D01*
X145522727Y-59142000D01*
X145417273Y-59142000D01*
X145315413Y-59169293D01*
X145315410Y-59169294D01*
X145224085Y-59222021D01*
X145149521Y-59296585D01*
X145096794Y-59387910D01*
X145096793Y-59387913D01*
X145069500Y-59489773D01*
X144345500Y-59489773D01*
X144318207Y-59387913D01*
X144265480Y-59296587D01*
X144190913Y-59222020D01*
X144099587Y-59169293D01*
X143997727Y-59142000D01*
X143892273Y-59142000D01*
X143790413Y-59169293D01*
X143790410Y-59169294D01*
X143699085Y-59222021D01*
X143624521Y-59296585D01*
X143571794Y-59387910D01*
X143571793Y-59387913D01*
X143544500Y-59489773D01*
X126249813Y-59489773D01*
X126726742Y-59012844D01*
X126729727Y-59009958D01*
X127032408Y-58727273D01*
X144307000Y-58727273D01*
X144307000Y-58832727D01*
X144334293Y-58934587D01*
X144387020Y-59025913D01*
X144461587Y-59100480D01*
X144552913Y-59153207D01*
X144654773Y-59180500D01*
X144654775Y-59180500D01*
X144760225Y-59180500D01*
X144760227Y-59180500D01*
X144862087Y-59153207D01*
X144953413Y-59100480D01*
X145027980Y-59025913D01*
X145080707Y-58934587D01*
X145108000Y-58832727D01*
X145108000Y-58727273D01*
X145832000Y-58727273D01*
X145832000Y-58832727D01*
X145859293Y-58934587D01*
X145912020Y-59025913D01*
X145986587Y-59100480D01*
X146077913Y-59153207D01*
X146179773Y-59180500D01*
X146179775Y-59180500D01*
X146285225Y-59180500D01*
X146285227Y-59180500D01*
X146387087Y-59153207D01*
X146478413Y-59100480D01*
X146552980Y-59025913D01*
X146605707Y-58934587D01*
X146633000Y-58832727D01*
X146633000Y-58727273D01*
X146605707Y-58625413D01*
X146552980Y-58534087D01*
X146478413Y-58459520D01*
X146387087Y-58406793D01*
X146285227Y-58379500D01*
X146179773Y-58379500D01*
X146077913Y-58406793D01*
X146077910Y-58406794D01*
X145986585Y-58459521D01*
X145912021Y-58534085D01*
X145859294Y-58625410D01*
X145859293Y-58625413D01*
X145832000Y-58727273D01*
X145108000Y-58727273D01*
X145080707Y-58625413D01*
X145027980Y-58534087D01*
X144953413Y-58459520D01*
X144862087Y-58406793D01*
X144760227Y-58379500D01*
X144654773Y-58379500D01*
X144552913Y-58406793D01*
X144552910Y-58406794D01*
X144461585Y-58459521D01*
X144387021Y-58534085D01*
X144334294Y-58625410D01*
X144334293Y-58625413D01*
X144307000Y-58727273D01*
X127032408Y-58727273D01*
X127519311Y-58272537D01*
X127522450Y-58269707D01*
X128336657Y-57559755D01*
X128339863Y-57557054D01*
X129177891Y-56875267D01*
X129181186Y-56872678D01*
X130042033Y-56219878D01*
X130045358Y-56217445D01*
X130927971Y-55594429D01*
X130931402Y-55592093D01*
X131420600Y-55271228D01*
X134149500Y-55271228D01*
X134149500Y-55438771D01*
X134182182Y-55603074D01*
X134182184Y-55603082D01*
X134246295Y-55757860D01*
X134339373Y-55897162D01*
X134457837Y-56015626D01*
X134550494Y-56077537D01*
X134597137Y-56108703D01*
X134751918Y-56172816D01*
X134916228Y-56205499D01*
X134916232Y-56205500D01*
X134916233Y-56205500D01*
X135083768Y-56205500D01*
X135083769Y-56205499D01*
X135248082Y-56172816D01*
X135402863Y-56108703D01*
X135542162Y-56015626D01*
X135660626Y-55897162D01*
X135753703Y-55757863D01*
X135817816Y-55603082D01*
X135844058Y-55471153D01*
X155549500Y-55471153D01*
X155549500Y-55628846D01*
X155580261Y-55783489D01*
X155580264Y-55783501D01*
X155640602Y-55929172D01*
X155640609Y-55929185D01*
X155728210Y-56060288D01*
X155728213Y-56060292D01*
X155839707Y-56171786D01*
X155839711Y-56171789D01*
X155970814Y-56259390D01*
X155970827Y-56259397D01*
X156116498Y-56319735D01*
X156116503Y-56319737D01*
X156271153Y-56350499D01*
X156271156Y-56350500D01*
X156271158Y-56350500D01*
X156428844Y-56350500D01*
X156428845Y-56350499D01*
X156583497Y-56319737D01*
X156729179Y-56259394D01*
X156860289Y-56171789D01*
X156971789Y-56060289D01*
X157059394Y-55929179D01*
X157119737Y-55783497D01*
X157130563Y-55729072D01*
X157162947Y-55667161D01*
X157223663Y-55632587D01*
X157276372Y-55631646D01*
X157371155Y-55650500D01*
X157371158Y-55650500D01*
X157528844Y-55650500D01*
X157528845Y-55650499D01*
X157683497Y-55619737D01*
X157829179Y-55559394D01*
X157960289Y-55471789D01*
X158071789Y-55360289D01*
X158159394Y-55229179D01*
X158219737Y-55083497D01*
X158250500Y-54928842D01*
X158250500Y-54771158D01*
X158250500Y-54771155D01*
X158250499Y-54771153D01*
X158242878Y-54732840D01*
X158219737Y-54616503D01*
X158205331Y-54581723D01*
X158159397Y-54470827D01*
X158159390Y-54470814D01*
X158071789Y-54339711D01*
X158071786Y-54339707D01*
X157960292Y-54228213D01*
X157960288Y-54228210D01*
X157829185Y-54140609D01*
X157829172Y-54140602D01*
X157683501Y-54080264D01*
X157683489Y-54080261D01*
X157528845Y-54049500D01*
X157528842Y-54049500D01*
X157371158Y-54049500D01*
X157371155Y-54049500D01*
X157216510Y-54080261D01*
X157216498Y-54080264D01*
X157070827Y-54140602D01*
X157070814Y-54140609D01*
X156939711Y-54228210D01*
X156939707Y-54228213D01*
X156828213Y-54339707D01*
X156828210Y-54339711D01*
X156740609Y-54470814D01*
X156740602Y-54470827D01*
X156680264Y-54616498D01*
X156680261Y-54616507D01*
X156669436Y-54670929D01*
X156637050Y-54732840D01*
X156576334Y-54767413D01*
X156523628Y-54768353D01*
X156428846Y-54749500D01*
X156428842Y-54749500D01*
X156271158Y-54749500D01*
X156271155Y-54749500D01*
X156116510Y-54780261D01*
X156116498Y-54780264D01*
X155970827Y-54840602D01*
X155970814Y-54840609D01*
X155839711Y-54928210D01*
X155839707Y-54928213D01*
X155728213Y-55039707D01*
X155728210Y-55039711D01*
X155640609Y-55170814D01*
X155640602Y-55170827D01*
X155580264Y-55316498D01*
X155580261Y-55316510D01*
X155549500Y-55471153D01*
X135844058Y-55471153D01*
X135850500Y-55438767D01*
X135850500Y-55271233D01*
X135817816Y-55106918D01*
X135753703Y-54952137D01*
X135722537Y-54905494D01*
X135660626Y-54812837D01*
X135542162Y-54694373D01*
X135402860Y-54601295D01*
X135248082Y-54537184D01*
X135248074Y-54537182D01*
X135083771Y-54504500D01*
X135083767Y-54504500D01*
X134916233Y-54504500D01*
X134916228Y-54504500D01*
X134751925Y-54537182D01*
X134751917Y-54537184D01*
X134597139Y-54601295D01*
X134457837Y-54694373D01*
X134339373Y-54812837D01*
X134246295Y-54952139D01*
X134182184Y-55106917D01*
X134182182Y-55106925D01*
X134149500Y-55271228D01*
X131420600Y-55271228D01*
X131834798Y-54999556D01*
X131838343Y-54997317D01*
X132761365Y-54436015D01*
X132764987Y-54433896D01*
X133706694Y-53904400D01*
X133710345Y-53902429D01*
X134669601Y-53405383D01*
X134673304Y-53403544D01*
X135648921Y-52939560D01*
X135652765Y-52937812D01*
X136643655Y-52507408D01*
X136647507Y-52505813D01*
X137538786Y-52154338D01*
X137585277Y-52145699D01*
X160493720Y-52333789D01*
G37*
%TD.AperFunction*%
%TD*%
M02*
